<?xml version="1.0" encoding="UTF-8"?>
<svg id="_图层_1" data-name="图层 1" xmlns="http://www.w3.org/2000/svg" viewBox="0 0 622 882">
  <defs>
    <style>
      .cls-1 {
        fill: #f7f8f6;
        stroke-width: 42px;
      }

      .cls-1, .cls-2 {
        stroke: #0b0f0e;
      }

      .cls-2 {
        fill: none;
        stroke-width: 18px;
      }

      .cls-3 {
        fill: #023206;
      }
    </style>
  </defs>
  <rect class="cls-1" x="21" y="21" width="580" height="840" rx="56" ry="56"/>
  <rect class="cls-2" x="69" y="73" width="484" height="736" rx="38" ry="38"/>
  <path class="cls-3" d="M313.2,591.2c-22.4,0-42.87-3.94-61.4-11.8-18.54-7.86-34.54-18.66-48-32.4-13.47-13.73-23.8-29.8-31-48.2s-10.8-38.13-10.8-59.2,3.73-40.4,11.2-58.8c7.46-18.4,18.06-34.6,31.8-48.6,13.73-14,29.8-24.93,48.2-32.8,18.4-7.86,38.4-11.8,60-11.8,25.33,0,48.66,5.74,70,17.2,21.33,11.47,39.06,26.94,53.2,46.4l-34.8,24.8c-11.47-14.4-24.4-25.6-38.8-33.6s-30.94-12-49.6-12c-13.87,0-27.14,2.74-39.8,8.2-12.67,5.47-23.94,13.07-33.8,22.8-9.87,9.74-17.67,21.27-23.4,34.6-5.74,13.34-8.6,27.87-8.6,43.6,0,21.87,4.93,40.87,14.8,57,9.86,16.14,22.8,28.54,38.8,37.2,16,8.67,33.33,13,52,13,17.06,0,32.46-3.2,46.2-9.6,13.73-6.4,25.13-15.4,34.2-27,9.06-11.6,14.8-25.26,17.2-41h-105.2l12.8-39.6h139.6c.26,3.47.4,6.4.4,8.8v8c-.27,20.8-4,40.07-11.2,57.8-7.2,17.74-17.27,33.07-30.2,46-12.94,12.94-28.2,23-45.8,30.2-17.6,7.2-36.94,10.8-58,10.8Z"/>
</svg>