<?xml version="1.0" encoding="UTF-8"?>
<svg id="_图层_1" data-name="图层_1" xmlns="http://www.w3.org/2000/svg" version="1.1" viewBox="0 0 283.46 283.46">
  <!-- Generator: Adobe Illustrator 29.0.0, SVG Export Plug-In . SVG Version: 2.1.0 Build 186)  -->
  <defs>
    <style>
      .st0 {
        fill: #a59e1e;
        stroke: #7c782c;
      }

      .st0, .st1, .st2, .st3, .st4, .st5, .st6, .st7, .st8 {
        stroke-miterlimit: 10;
      }

      .st0, .st2 {
        stroke-width: 3px;
      }

      .st1 {
        fill: #6a6969;
        stroke: #575554;
      }

      .st1, .st4, .st8 {
        stroke-width: 5px;
      }

      .st2, .st4 {
        fill: #bfc0c0;
      }

      .st2, .st4, .st5 {
        stroke: #898989;
      }

      .st9 {
        fill: #595757;
      }

      .st3 {
        stroke: #231815;
      }

      .st3, .st5, .st6, .st7 {
        stroke-width: 2px;
      }

      .st3, .st6 {
        fill: #fff;
      }

      .st5 {
        fill: #231815;
      }

      .st6 {
        stroke: #e60012;
      }

      .st7 {
        fill: #94c865;
        stroke: #84c02b;
      }

      .st8 {
        fill: #cbc31b;
        stroke: #a4991f;
      }

      .st10 {
        fill: #898989;
      }
    </style>
  </defs>
  <rect class="st8" x="93.98" y="55.92" width="99.21" height="170.08" transform="translate(-57.62 142.82) rotate(-45)"/>
  <polygon class="st1" points="86.53 129.87 130.27 154.28 154.68 198.02 135.99 216.7 111.26 173.29 67.84 148.55 86.53 129.87"/>
  <polygon class="st1" points="104.95 111.45 148.69 135.86 173.1 179.6 154.41 198.29 129.68 154.87 86.26 130.14 104.95 111.45"/>
  <path class="st1" d="M93.71,190.84l24.41,43.74-8.6,8.6c-1.11,1.11-2.9,1.11-4.01,0l-27.44-27.44-3.36-5.9-5.9-3.36-27.44-27.44c-1.11-1.11-1.11-2.9,0-4.01l8.6-8.6,43.74,24.41Z"/>
  <polygon class="st1" points="68.38 148.01 112.12 172.42 136.53 216.16 117.85 234.85 93.12 191.43 49.7 166.7 68.38 148.01"/>
  <polygon class="st1" points="159.66 56.74 203.4 81.15 227.81 124.89 209.12 143.58 184.39 100.16 140.97 75.43 159.66 56.74"/>
  <path class="st1" d="M185.25,42.32l56.98,56.98,2.96,5.3c.62,1.11.43,2.49-.47,3.39l-17.17,17.17-24.74-43.41-43.41-24.74,17.17-17.17c.9-.9,2.28-1.09,3.39-.47l5.3,2.96Z"/>
  <polygon class="st1" points="123.09 93.3 166.83 117.71 191.25 161.45 172.56 180.14 147.83 136.72 104.41 111.99 123.09 93.3"/>
  <polygon class="st1" points="141.51 74.89 185.25 99.3 209.66 143.04 190.98 161.72 166.24 118.3 122.83 93.57 141.51 74.89"/>
  <path class="st1" d="M181.66,38.74l5.75,5.75-9.89-5.63.12-.12c1.11-1.11,2.9-1.11,4.01,0Z"/>
  <path class="st1" d="M245.68,107.01l-5.63-9.89,5.75,5.75c1.11,1.11,1.11,2.9,0,4.01l-.12.12Z"/>
  <polygon class="st1" points="75.56 208.99 80.94 218.63 65.92 203.61 75.56 208.99"/>
  <path class="st4" d="M153.79,62.98l68.15,68.15,16.04-16.04,21.86,21.86c2.21,2.21,2.21,5.81,0,8.02l-21.55,21.55-22.04-22.04-56.12,56.12,22.04,22.04-34.57,34.57c-2.21,2.21-5.81,2.21-8.02,0l-22.05-22.05,16.04-16.04-68.15-68.15-16.04,16.04-22.05-22.05c-2.21-2.21-2.21-5.81,0-8.02L139.57,24.71c2.21-2.21,5.81-2.21,8.02,0l22.24,22.24-16.04,16.04Z"/>
  <path class="st0" d="M199.79,186.96l-6.03-6.03-4.59,4.59c-.06-.02-.12-.05-.17-.07v-6.51s-8.52,0-8.52,0v6.49c-.05.02-.11.05-.17.07l-4.55-4.55-6.01,6.01,4.54,4.54c-.03.07-.06.13-.08.2h-6.5s.01,8.51.01,8.51h6.5c.02.07.05.13.07.18l-4.59,4.59,6.03,6.03,4.59-4.59c.06.02.12.05.18.07v6.5s8.52,0,8.52,0v-6.5c.06-.03.12-.05.19-.08l4.59,4.59,6.01-6.01-4.61-4.61s.03-.07.04-.1h6.52s0-8.51,0-8.51h-6.48c-.03-.08-.06-.15-.09-.22l4.6-4.6ZM189.78,201c-2.77,2.77-7.26,2.76-10.03-.01s-2.78-7.26-.01-10.03,7.26-2.76,10.03,0,2.78,7.27.01,10.03Z"/>
  <path class="st0" d="M226.15,160.61l-6.03-6.03-4.59,4.59c-.06-.02-.12-.05-.17-.07v-6.51s-8.52,0-8.52,0v6.49c-.05.02-.11.05-.17.07l-4.55-4.55-6.01,6.01,4.54,4.54c-.03.07-.06.13-.08.2h-6.5s.01,8.51.01,8.51h6.5c.02.07.05.13.07.18l-4.59,4.59,6.03,6.03,4.59-4.59c.06.02.12.05.18.07v6.5s8.52,0,8.52,0v-6.5c.06-.03.12-.05.19-.08l4.59,4.59,6.01-6.01-4.61-4.61s.03-.07.04-.1h6.52s0-8.51,0-8.51h-6.48c-.03-.08-.06-.15-.09-.22l4.6-4.6ZM216.13,174.64c-2.77,2.77-7.26,2.76-10.03-.01s-2.78-7.26-.01-10.03c2.77-2.77,7.26-2.76,10.03,0,2.77,2.77,2.78,7.27.01,10.03Z"/>
  <rect class="st4" x="220.73" y="120.94" width="39.31" height="39.78" transform="translate(-29.17 211.22) rotate(-45)"/>
  <path class="st4" d="M115.52,49.97l25.96,25.96c.33.33.24.97-.21,1.42l-26.97,26.97c-.45.45-1.09.55-1.42.21l-25.96-25.96c-.33-.33-.24-.97.21-1.42l26.97-26.97c.45-.45,1.09-.55,1.42-.21Z"/>
  <path class="st4" d="M69.02,84.54l25.96,25.96c.33.33.29.92-.1,1.31l-23.32,23.32c-.39.39-.98.44-1.31.1l-25.96-25.96c-.33-.33-.29-.92.1-1.31l23.32-23.32c.39-.39.98-.44,1.31-.1Z"/>
  <path class="st4" d="M77.18,103.55l25.96,25.96c.33.33.42.78.2,1.01l-13.24,13.24c-.22.22-.67.13-1.01-.2l-25.96-25.96c-.33-.33-.42-.78-.2-1.01l13.24-13.24c.22-.22.67-.13,1.01.2Z"/>
  <rect class="st4" x="93.98" y="77.18" width="99.21" height="127.56" rx="2.83" ry="2.83" transform="translate(-57.62 142.82) rotate(-45)"/>
  <ellipse class="st2" cx="240.47" cy="140.74" rx="13.13" ry="13.27" transform="translate(-29.08 211.26) rotate(-45)"/>
  <ellipse class="st5" cx="240.47" cy="140.74" rx="8.18" ry="8.26" transform="translate(-29.08 211.26) rotate(-45)"/>
  <circle class="st3" cx="102.67" cy="76.85" r="6.73"/>
  <circle class="st3" cx="114.32" cy="65.2" r="6.73"/>
  <line class="st6" x1="102.67" y1="76.85" x2="109.32" y2="77.85"/>
  <line class="st6" x1="114.32" y1="65.2" x2="113.32" y2="58.55"/>
  <circle class="st9" cx="57.02" cy="106.15" r="2.28"/>
  <circle class="st9" cx="65.56" cy="97.61" r="2.28"/>
  <circle class="st9" cx="61.37" cy="110.5" r="2.28"/>
  <circle class="st9" cx="69.91" cy="101.96" r="2.28"/>
  <circle class="st9" cx="65.81" cy="106.06" r="2.28"/>
  <circle class="st9" cx="61.37" cy="101.79" r="2.28"/>
  <circle class="st10" cx="76.11" cy="130.57" r="2.28"/>
  <circle class="st10" cx="132.14" cy="74.54" r="2.28"/>
  <circle class="st10" cx="210.54" cy="151.9" r="2.28"/>
  <circle class="st10" cx="153.99" cy="208.45" r="2.28"/>
  <circle class="st10" cx="34.8" cy="140.89" r="2.28"/>
  <circle class="st10" cx="143.49" cy="32.2" r="2.28"/>
  <circle class="st10" cx="143.4" cy="249.49" r="2.28"/>
  <circle class="st7" cx="104.08" cy="180.47" r="3.06"/>
</svg>