<?xml version="1.0" encoding="UTF-8"?>
<svg id="_图层_1" data-name="图层_1" xmlns="http://www.w3.org/2000/svg" version="1.1" viewBox="0 0 283.46 283.46">
  <!-- Generator: Adobe Illustrator 29.0.0, SVG Export Plug-In . SVG Version: 2.1.0 Build 186)  -->
  <defs>
    <style>
      .st0 {
        fill: #b3b3b4;
        stroke: #6f6e6f;
        stroke-miterlimit: 10;
        stroke-width: 8px;
      }
    </style>
  </defs>
  <path class="st0" d="M226.77,162.95v-42.61h-32.43c-.12-.29-.24-.58-.36-.87l22.99-23.04-30.07-30.13-22.93,22.98c-.29-.12-.58-.24-.88-.37v-32.21h-42.52v32.13c-.33.14-.66.27-.98.41l-22.96-23.01-30.06,30.13,22.96,23.01c-.13.29-.25.59-.37.88h-32.47v42.61h32.47c.12.29.24.59.37.88l-22.96,23.01,30.06,30.12,22.95-23c.33.14.65.27.99.41v32.49h42.52v-32.57c.18-.08.35-.15.52-.22l23.03,23.08,30.07-30.12-22.88-22.93c.14-.35.29-.71.44-1.06h32.5ZM141.73,177.16c-19.57,0-35.43-15.9-35.43-35.51s15.86-35.5,35.43-35.5,35.44,15.89,35.44,35.5-15.87,35.51-35.44,35.51Z"/>
</svg>