<?xml version="1.0" encoding="UTF-8"?>
<svg id="_图层_1" data-name="图层_1" xmlns="http://www.w3.org/2000/svg" version="1.1" viewBox="0 0 283.46 283.46">
  <!-- Generator: Adobe Illustrator 29.0.0, SVG Export Plug-In . SVG Version: 2.1.0 Build 186)  -->
  <defs>
    <style>
      .st0 {
        fill: #231815;
      }
    </style>
  </defs>
  <path class="st0" d="M229.76,105.26c-5.82-14.05-8.82-28.69-7.85-42.9-31.2,2.88-60.16-9.9-80.18-34.02-9.35,10.75-22.42,19.54-36.47,25.36-14.05,5.82-28.71,8.03-42.92,7.05,2.91,31.21-9.87,60.96-34,80.97,10.75,9.35,19.54,22.4,25.36,36.46,5.82,14.05,8.84,29.5,7.85,43.72,31.21-2.91,60.15,9.11,80.18,33.21,9.36-10.73,22.41-19.53,36.46-25.35,14.05-5.82,29.5-8.84,43.72-7.86-2.91-31.21,9.09-60.16,33.21-80.18-10.75-9.35-19.54-22.42-25.36-36.47ZM173.96,219.11c-42.54,17.62-91.31-2.58-108.93-45.12-17.62-42.54,2.58-91.31,45.12-108.93,42.54-17.62,91.31,2.58,108.93,45.12,17.62,42.54-2.58,91.31-45.12,108.93Z"/>
</svg>