<?xml version="1.0" encoding="UTF-8"?>
<svg id="_图层_1" data-name="图层_1" xmlns="http://www.w3.org/2000/svg" version="1.1" viewBox="0 0 283.46 283.46">
  <!-- Generator: Adobe Illustrator 29.0.0, SVG Export Plug-In . SVG Version: 2.1.0 Build 186)  -->
  <defs>
    <style>
      .st0 {
        opacity: .25;
      }

      .st0, .st1 {
        fill: #9fa0a0;
      }

      .st2 {
        fill: #148d3b;
        stroke: #006736;
      }

      .st2, .st3 {
        stroke-miterlimit: 10;
        stroke-width: 5px;
      }

      .st4 {
        fill: #231815;
      }

      .st3 {
        fill: #aecf32;
        stroke: #000;
      }
    </style>
  </defs>
  <path class="st0" d="M248.03,141.73c0,58.71-47.59,106.3-106.3,106.3s-106.3-47.59-106.3-106.3c0-11.08,1.7-21.77,4.85-31.81,1.05-3.39,2.28-6.69,3.66-9.92,1.26-2.96,2.65-5.85,4.17-8.66,1.85-3.43,3.87-6.74,6.07-9.92,18.3-26.51,48.33-44.3,82.59-45.87,1.64-.08,3.3-.12,4.96-.12s3.32.04,4.96.12c34.26,1.57,64.29,19.36,82.59,45.87,2.2,3.18,4.22,6.49,6.07,9.92,1.52,2.81,2.91,5.7,4.17,8.66,1.38,3.23,2.61,6.53,3.66,9.92,3.15,10.04,4.85,20.73,4.85,31.81Z"/>
  <path class="st4" d="M243.18,109.92H40.28c1.05-3.39,2.28-6.69,3.66-9.92h92.83V35.55c1.64-.08,3.3-.12,4.96-.12s3.32.04,4.96.12v64.45h92.83c1.38,3.23,2.61,6.53,3.66,9.92Z"/>
  <path class="st2" d="M215.34,137.4H68.28c-2.03,0-3.43-2.39-2.69-4.61l17.47-52.66c.42-1.27,1.46-2.11,2.63-2.11h112.15c1.1,0,2.09.79,2.49,2l17.57,53c.7,2.1-.63,4.37-2.55,4.37Z"/>
  <circle class="st3" cx="113.35" cy="109.17" r="14.17"/>
  <circle class="st3" cx="170.05" cy="109.17" r="14.17"/>
  <circle class="st1" cx="92.09" cy="88.86" r="4.25"/>
  <circle class="st1" cx="79.34" cy="127.6" r="4.25"/>
  <circle class="st1" cx="204.06" cy="127.6" r="4.25"/>
  <circle class="st1" cx="191.31" cy="88.86" r="4.25"/>
</svg>