<?xml version="1.0" encoding="UTF-8"?>
<svg id="_图层_1" data-name="图层_1" xmlns="http://www.w3.org/2000/svg" version="1.1" viewBox="0 0 283.46 283.46">
  <!-- Generator: Adobe Illustrator 29.0.0, SVG Export Plug-In . SVG Version: 2.1.0 Build 186)  -->
  <defs>
    <style>
      .st0 {
        fill: #c9caca;
        stroke: #898989;
        stroke-miterlimit: 10;
        stroke-width: 5px;
      }
    </style>
  </defs>
  <path class="st0" d="M240.17,158.11c.29-.28.03-.77-.37-.68l-16.43,3.78c.52-2.12.95-4.26,1.29-6.44l15.41-31.38c.16-.33-.21-.66-.51-.46l-14.35,9.31c-.24-2.23-.58-4.43-.99-6.6l3.83-35.56c.02-.11-.12-.17-.19-.08l-10.81,14.33c-.86-1.73-1.78-3.43-2.76-5.09l-8.34-33.86c-.1-.41-.68-.43-.8-.02l-4.9,15.98c-1.68-1.64-3.42-3.19-5.23-4.67l-19.5-29.1c-.12-.17-.38-.08-.37.13l.89,17.26c-2.36-1.05-4.78-2.01-7.25-2.83l-27.86-20.36c-.07-.06-.18.02-.14.11l6.8,16.06c-1.85-.13-3.71-.19-5.59-.19-.58,0-1.17.01-1.75.02l-33.77-9.78c-.15-.05-.27.14-.16.26l12,12.9c-2.2.64-4.35,1.38-6.47,2.19l-35.31,2.38c-.15.01-.19.2-.06.27l15.83,8.09c-1.83,1.35-3.6,2.78-5.31,4.28l-32.33,14.28c-.16.07-.12.31.05.33l17.55,2.17c-1.3,1.94-2.52,3.95-3.64,6.01l-25.41,24.4c-.12.11,0,.31.16.28l17.22-3.96c-.55,2.3-1.01,4.64-1.37,7.01l-15.12,30.79c-.16.33.21.66.52.46l14.2-9.2c.25,2.35.62,4.68,1.08,6.97l-3.82,35.39s.02.03.04.02l10.95-14.49c1.16,2.34,2.44,4.62,3.83,6.83l8.22,33.38c.08.33.53.34.63.02l5.06-16.46c1.62,1.52,3.29,2.97,5.02,4.34l19.9,29.67c.07.11.23.05.22-.07l-.92-18.1c1.83.79,3.68,1.51,5.57,2.15l28.83,21.07c.28.2.66-.09.52-.41l-6.86-16.22c1.62.1,3.26.15,4.9.15.45,0,.91,0,1.36-.02l34.12,9.89c.19.05.33-.18.2-.33l-12.04-12.93c2.22-.65,4.4-1.39,6.54-2.22l34.83-2.34c.28-.02.36-.39.11-.51l-15.43-7.89c1.84-1.34,3.62-2.77,5.34-4.28l32.35-14.29c.15-.06.12-.28-.04-.3l-17.59-2.18c1.23-1.85,2.39-3.75,3.47-5.7l24.95-23.96ZM141.73,170.08c-15.65,0-28.34-12.69-28.34-28.35s12.69-28.34,28.34-28.34,28.35,12.69,28.35,28.34-12.69,28.35-28.35,28.35Z"/>
</svg>