<?xml version="1.0" encoding="UTF-8"?>
<svg id="_图层_1" data-name="图层_1" xmlns="http://www.w3.org/2000/svg" version="1.1" viewBox="0 0 283.46 283.46">
  <!-- Generator: Adobe Illustrator 29.0.0, SVG Export Plug-In . SVG Version: 2.1.0 Build 186)  -->
  <defs>
    <style>
      .st0 {
        stroke: #956134;
        stroke-width: 20px;
      }

      .st0, .st1 {
        stroke-miterlimit: 10;
      }

      .st0, .st1, .st2 {
        fill: none;
        stroke-linecap: round;
      }

      .st1 {
        stroke: #6a3906;
        stroke-width: 24px;
      }

      .st2 {
        stroke: #7f4f21;
        stroke-linejoin: round;
        stroke-width: 5px;
      }
    </style>
  </defs>
  <g>
    <polyline class="st2" points="141.29 132.69 136.26 94.76 147.68 72.87"/>
    <polyline class="st2" points="176.11 90.79 157.93 110.54 149.11 136.42"/>
    <polyline class="st2" points="205.29 124.22 178.8 137.27 163.39 151.7"/>
    <g>
      <polyline class="st2" points="192.5 109.65 170.16 121.26 158.66 142.53"/>
      <polyline class="st2" points="131.34 145.67 93.37 150.7 75.18 167.42"/>
      <polyline class="st2" points="99.9 190.16 114.26 167.49 136.98 152.24"/>
      <polyline class="st2" points="122.4 201.06 127.8 176.5 145.37 159.86"/>
      <polyline class="st2" points="139.81 209.6 145.53 180.66 155.47 162.03"/>
    </g>
  </g>
  <g>
    <g>
      <line class="st1" x1="121.78" y1="159.07" x2="142.74" y2="147.48"/>
      <line class="st1" x1="109.16" y1="120.47" x2="187.92" y2="174.64"/>
      <line class="st1" x1="157.55" y1="117.57" x2="133.57" y2="130.39"/>
      <line class="st1" x1="167.27" y1="192.98" x2="154.11" y2="151.92"/>
    </g>
    <g>
      <line class="st0" x1="121.78" y1="159.07" x2="142.74" y2="147.48"/>
      <line class="st0" x1="109.16" y1="120.47" x2="187.92" y2="174.64"/>
      <line class="st0" x1="157.55" y1="117.57" x2="133.57" y2="130.39"/>
      <line class="st0" x1="167.27" y1="192.98" x2="154.11" y2="151.92"/>
    </g>
  </g>
</svg>