<?xml version="1.0" encoding="UTF-8"?>
<svg id="_图层_1" data-name="图层_1" xmlns="http://www.w3.org/2000/svg" version="1.1" viewBox="0 0 283.46 283.46">
  <!-- Generator: Adobe Illustrator 29.0.0, SVG Export Plug-In . SVG Version: 2.1.0 Build 186)  -->
  <defs>
    <style>
      .st0 {
        fill: #ac3c23;
        stroke: #8e3b22;
      }

      .st0, .st1, .st2, .st3 {
        stroke-miterlimit: 10;
        stroke-width: 5px;
      }

      .st1 {
        fill: #e4e4e5;
        stroke: #cdcece;
      }

      .st2 {
        fill: #e7231d;
        opacity: .75;
        stroke: #da1617;
      }

      .st3 {
        fill: #aaabab;
        stroke: #929292;
      }
    </style>
  </defs>
  <path class="st0" d="M84.94,160.07h13.69v42.11c0,.16-.13.28-.28.28h-13.13c-.16,0-.28-.13-.28-.28v-42.11h0Z" transform="translate(171.65 -5.56) rotate(50)"/>
  <path class="st3" d="M144.27,199.79c-5.24,4.39-23.2-8.39-40.12-28.55-16.92-20.16-26.39-40.07-21.15-44.46,5.24-4.39,66.51,68.63,61.27,73.02Z"/>
  <path class="st1" d="M208.62,82.86l-105.85,70.04c-.14.09-.17.29-.06.42l18.5,22.05c.11.13.31.14.42.01l87.35-92.08c.23-.24-.08-.62-.36-.43Z"/>
  <polygon class="st2" points="174.31 175.03 174.31 178.86 160.89 178.86 160.89 192.29 157.05 192.29 157.05 178.86 143.63 178.86 143.63 175.03 157.05 175.03 157.05 161.6 160.89 161.6 160.89 175.03 174.31 175.03"/>
  <polygon class="st2" points="212.2 175.03 212.2 178.86 198.78 178.86 198.78 192.29 194.94 192.29 194.94 178.86 181.52 178.86 181.52 175.03 194.94 175.03 194.94 161.6 198.78 161.6 198.78 175.03 212.2 175.03"/>
</svg>