<?xml version="1.0" encoding="UTF-8"?>
<svg id="_图层_1" data-name="图层_1" xmlns="http://www.w3.org/2000/svg" version="1.1" viewBox="0 0 283.46 283.46">
  <!-- Generator: Adobe Illustrator 29.0.0, SVG Export Plug-In . SVG Version: 2.1.0 Build 186)  -->
  <defs>
    <style>
      .st0 {
        fill: #fff;
        stroke: #52a334;
      }

      .st0, .st1 {
        stroke-width: 5px;
      }

      .st0, .st1, .st2 {
        stroke-miterlimit: 10;
      }

      .st1 {
        fill: #a3cb2f;
        stroke: #84c024;
      }

      .st2 {
        fill: #f8ef9e;
        stroke: #f6e56b;
        stroke-width: 10px;
      }
    </style>
  </defs>
  <circle class="st2" cx="141.73" cy="141.73" r="113.39"/>
  <path class="st0" d="M134.3,244.82l85.67-32.1c3.14-1.18,4.58-4.81,3.09-7.82l-66.83-135.1c-1.29-2.61-4.35-3.82-7.07-2.8l-85.67,32.1c-3.14,1.18-4.58,4.81-3.09,7.82l66.83,135.1c1.29,2.61,4.35,3.82,7.07,2.8Z"/>
  <path class="st0" d="M134.3,241.98l85.67-32.1c3.14-1.18,4.58-4.81,3.09-7.82l-66.83-135.1c-1.29-2.61-4.35-3.82-7.07-2.8l-85.67,32.1c-3.14,1.18-4.58,4.81-3.09,7.82l66.83,135.1c1.29,2.61,4.35,3.82,7.07,2.8Z"/>
  <path class="st0" d="M134.3,241.98l85.67-32.1c3.14-1.18,4.58-4.81,3.09-7.82l-66.83-135.1c-1.29-2.61-4.35-3.82-7.07-2.8l-85.67,32.1c-3.14,1.18-4.58,4.81-3.09,7.82l66.83,135.1c1.29,2.61,4.35,3.82,7.07,2.8Z"/>
  <path class="st0" d="M134.3,239.15l85.67-32.1c3.14-1.18,4.58-4.81,3.09-7.82l-66.83-135.1c-1.29-2.61-4.35-3.82-7.07-2.8l-85.67,32.1c-3.14,1.18-4.58,4.81-3.09,7.82l66.83,135.1c1.29,2.61,4.35,3.82,7.07,2.8Z"/>
  <path class="st0" d="M134.3,239.15l85.67-32.1c3.14-1.18,4.58-4.81,3.09-7.82l-66.83-135.1c-1.29-2.61-4.35-3.82-7.07-2.8l-85.67,32.1c-3.14,1.18-4.58,4.81-3.09,7.82l66.83,135.1c1.29,2.61,4.35,3.82,7.07,2.8Z"/>
  <path class="st0" d="M134.3,236.31l85.67-32.1c3.14-1.18,4.58-4.81,3.09-7.82L156.24,61.29c-1.29-2.61-4.35-3.82-7.07-2.8l-85.67,32.1c-3.14,1.18-4.58,4.81-3.09,7.82l66.83,135.1c1.29,2.61,4.35,3.82,7.07,2.8Z"/>
  <path class="st0" d="M134.3,236.31l85.67-32.1c3.14-1.18,4.58-4.81,3.09-7.82L156.24,61.29c-1.29-2.61-4.35-3.82-7.07-2.8l-85.67,32.1c-3.14,1.18-4.58,4.81-3.09,7.82l66.83,135.1c1.29,2.61,4.35,3.82,7.07,2.8Z"/>
  <path class="st0" d="M134.3,233.48l85.67-32.1c3.14-1.18,4.58-4.81,3.09-7.82L156.24,58.45c-1.29-2.61-4.35-3.82-7.07-2.8l-85.67,32.1c-3.14,1.18-4.58,4.81-3.09,7.82l66.83,135.1c1.29,2.61,4.35,3.82,7.07,2.8Z"/>
  <path class="st0" d="M134.3,236.31l85.67-32.1c3.14-1.18,4.58-4.81,3.09-7.82L156.24,61.29c-1.29-2.61-4.35-3.82-7.07-2.8l-85.67,32.1c-3.14,1.18-4.58,4.81-3.09,7.82l66.83,135.1c1.29,2.61,4.35,3.82,7.07,2.8Z"/>
  <path class="st0" d="M134.3,233.48l85.67-32.1c3.14-1.18,4.58-4.81,3.09-7.82L156.24,58.45c-1.29-2.61-4.35-3.82-7.07-2.8l-85.67,32.1c-3.14,1.18-4.58,4.81-3.09,7.82l66.83,135.1c1.29,2.61,4.35,3.82,7.07,2.8Z"/>
  <path class="st0" d="M134.3,233.48l85.67-32.1c3.14-1.18,4.58-4.81,3.09-7.82L156.24,58.45c-1.29-2.61-4.35-3.82-7.07-2.8l-85.67,32.1c-3.14,1.18-4.58,4.81-3.09,7.82l66.83,135.1c1.29,2.61,4.35,3.82,7.07,2.8Z"/>
  <path class="st0" d="M134.3,230.64l85.67-32.1c3.14-1.18,4.58-4.81,3.09-7.82L156.24,55.62c-1.29-2.61-4.35-3.82-7.07-2.8l-85.67,32.1c-3.14,1.18-4.58,4.81-3.09,7.82l66.83,135.1c1.29,2.61,4.35,3.82,7.07,2.8Z"/>
  <path class="st0" d="M134.3,230.64l85.67-32.1c3.14-1.18,4.58-4.81,3.09-7.82L156.24,55.62c-1.29-2.61-4.35-3.82-7.07-2.8l-85.67,32.1c-3.14,1.18-4.58,4.81-3.09,7.82l66.83,135.1c1.29,2.61,4.35,3.82,7.07,2.8Z"/>
  <path class="st0" d="M134.3,227.81l85.67-32.1c3.14-1.18,4.58-4.81,3.09-7.82L156.24,52.78c-1.29-2.61-4.35-3.82-7.07-2.8l-85.67,32.1c-3.14,1.18-4.58,4.81-3.09,7.82l66.83,135.1c1.29,2.61,4.35,3.82,7.07,2.8Z"/>
  <path class="st0" d="M134.3,227.81l85.67-32.1c3.14-1.18,4.58-4.81,3.09-7.82L156.24,52.78c-1.29-2.61-4.35-3.82-7.07-2.8l-85.67,32.1c-3.14,1.18-4.58,4.81-3.09,7.82l66.83,135.1c1.29,2.61,4.35,3.82,7.07,2.8Z"/>
  <path class="st0" d="M134.3,224.97l85.67-32.1c3.14-1.18,4.58-4.81,3.09-7.82L156.24,49.95c-1.29-2.61-4.35-3.82-7.07-2.8l-85.67,32.1c-3.14,1.18-4.58,4.81-3.09,7.82l66.83,135.1c1.29,2.61,4.35,3.82,7.07,2.8Z"/>
  <path class="st0" d="M134.3,222.14l85.67-32.1c3.14-1.18,4.58-4.81,3.09-7.82L156.24,47.11c-1.29-2.61-4.35-3.82-7.07-2.8l-85.67,32.1c-3.14,1.18-4.58,4.81-3.09,7.82l66.83,135.1c1.29,2.61,4.35,3.82,7.07,2.8Z"/>
  <path class="st1" d="M134.3,219.3l85.67-32.1c3.14-1.18,4.58-4.81,3.09-7.82L156.24,44.28c-1.29-2.61-4.35-3.82-7.07-2.8l-85.67,32.1c-3.14,1.18-4.58,4.81-3.09,7.82l66.83,135.1c1.29,2.61,4.35,3.82,7.07,2.8Z"/>
</svg>