<?xml version="1.0" encoding="UTF-8"?>
<svg id="_图层_1" data-name="图层_1" xmlns="http://www.w3.org/2000/svg" version="1.1" viewBox="0 0 283.46 283.46">
  <!-- Generator: Adobe Illustrator 29.0.0, SVG Export Plug-In . SVG Version: 2.1.0 Build 186)  -->
  <defs>
    <style>
      .st0 {
        fill: #c9caca;
        opacity: .2;
        stroke: #231815;
      }

      .st0, .st1 {
        stroke-miterlimit: 10;
      }

      .st1 {
        fill: #f9f8c8;
        stroke: #f0f097;
        stroke-width: 2px;
      }
    </style>
  </defs>
  <path class="st0" d="M248.03,141.73c0,1.75-.04,3.48-.13,5.21,0,.17-.01.35-.03.52-.3,5.81-1.07,11.49-2.29,17.01-.83,3.84-1.87,7.61-3.12,11.28-2.19,6.52-5.01,12.76-8.37,18.64-1.64,2.88-3.42,5.67-5.31,8.37-3.88,5.52-8.28,10.66-13.11,15.34-19.14,18.53-45.21,29.93-73.94,29.93-21.12,0-40.81-6.16-57.36-16.79-4.57-2.93-8.91-6.21-12.97-9.8-.63-.55-1.25-1.11-1.87-1.69-4.39-4.06-8.44-8.49-12.08-13.24-2.88-3.72-5.5-7.64-7.86-11.74-3.34-5.79-6.15-11.92-8.36-18.34-1.35-3.89-2.47-7.88-3.35-11.96-1.22-5.52-1.99-11.2-2.29-17.01-.11-1.9-.16-3.81-.16-5.73,0-18.01,4.48-34.97,12.39-49.83h0c3.7-7,8.17-13.51,13.29-19.46,2.53-2.94,5.21-5.73,8.04-8.37,5.9-5.53,12.43-10.38,19.48-14.45,15.62-9.02,33.76-14.19,53.1-14.19s38.07,5.34,53.87,14.65c6.8,3.99,13.12,8.73,18.84,14.11,1.25,1.17,2.48,2.38,3.66,3.61,5.65,5.82,10.62,12.28,14.8,19.26,7.41,12.3,12.38,26.23,14.28,41.12.56,4.44.85,8.96.85,13.55Z"/>
  <path class="st1" d="M214.44,64.19l-10.08,1.68h-.01l-56.01,9.31h-.01l-100.51,16.71c3.7-6.99,8.17-13.5,13.29-19.45l30.99-5.15,56.03-9.32h.01l47.46-7.89c6.8,3.99,13.12,8.73,18.84,14.11Z"/>
  <path class="st1" d="M232.9,87.06l-84.56-11.88h-.01l-56.23-7.89-22.95-3.22c5.9-5.53,12.43-10.38,19.48-14.45l59.5,8.35h.01l56.21,7.9h.01l13.74,1.93c5.65,5.82,10.62,12.28,14.8,19.26Z"/>
  <path class="st1" d="M247.87,147.46c-.3,5.81-1.07,11.49-2.29,17.01H37.88c-1.22-5.52-1.99-11.2-2.29-17.01h212.28Z"/>
  <path class="st1" d="M228.78,202.76c-3.88,5.52-8.28,10.66-13.11,15.34l-67.31-9.46h-.02l-15.82-2.22-29.18-4.1-11.2-1.57h-.01l-42.54-5.98c-3.34-5.79-6.15-11.92-8.36-18.34l88.3,12.39,18.61,2.62h.02l10.55,1.48,45.66,6.41,24.41,3.43Z"/>
  <path class="st1" d="M248.03,141.73c0,1.75-.04,3.48-.13,5.21l-1,.52-33,17.01-45.91,23.66-9.28,4.79-26.19,13.5-13.91,7.17-34.24,17.65c-4.57-2.93-8.91-6.21-12.97-9.8-.63-.55-1.25-1.11-1.87-1.69l33.81-17.43,9.84-5.07,16.35-8.43,47.24-24.35,33.01-17.01,37.4-19.28c.56,4.44.85,8.96.85,13.55Z"/>
  <path class="st1" d="M242.46,175.75c-2.19,6.52-5.01,12.76-8.37,18.64l-29.72,4.94-56.01,9.31h-.02l-29.73,4.95-47.21,7.85c-.63-.55-1.25-1.11-1.87-1.69-4.39-4.06-8.44-8.49-12.08-13.24l34.68-5.76h.01l21.04-3.5,34.96-5.81h.02l19.83-3.31,74.47-12.38Z"/>
</svg>