<?xml version="1.0" encoding="UTF-8"?>
<svg id="_图层_1" data-name="图层_1" xmlns="http://www.w3.org/2000/svg" version="1.1" viewBox="0 0 283.46 283.46">
  <!-- Generator: Adobe Illustrator 29.0.0, SVG Export Plug-In . SVG Version: 2.1.0 Build 186)  -->
  <defs>
    <style>
      .st0 {
        fill: #ea5723;
        opacity: .8;
        stroke: #e53010;
        stroke-miterlimit: 10;
        stroke-width: 10px;
      }
    </style>
  </defs>
  <polygon class="st0" points="122.47 169.83 94.05 103.26 129.38 119.18 131.13 56.56 165.59 122.5 170.13 56.56 187.97 121.98 206.69 70.73 221.21 134.22 203.85 169.95 122.47 169.83"/>
  <polygon class="st0" points="104.91 196.1 80.04 137.85 110.96 151.77 112.49 96.98 142.64 154.68 146.62 96.98 162.23 154.22 178.6 109.38 191.31 164.93 176.12 196.19 104.91 196.1"/>
  <polygon class="st0" points="83.57 226.82 62.26 176.89 88.76 188.83 90.07 141.86 115.91 191.32 119.32 141.86 132.7 190.93 146.74 152.49 157.63 200.11 144.61 226.9 83.57 226.82"/>
</svg>