<?xml version="1.0" encoding="UTF-8"?>
<svg id="_图层_1" data-name="图层_1" xmlns="http://www.w3.org/2000/svg" version="1.1" viewBox="0 0 283.46 283.46">
  <!-- Generator: Adobe Illustrator 29.0.0, SVG Export Plug-In . SVG Version: 2.1.0 Build 186)  -->
  <defs>
    <style>
      .st0 {
        fill: #e11c13;
        stroke: #bd1b21;
        stroke-miterlimit: 10;
        stroke-width: 5px;
      }
    </style>
  </defs>
  <path class="st0" d="M137.54,145.14c0,14.68-10.13,20.09-17.3,20.09-5.77,0-17.3-6.81-17.3-20.09,0-17.08,17.3-30.93,17.3-30.93,0,0,17.3,13.85,17.3,30.93Z"/>
  <path class="st0" d="M206.72,192.46c0,20.39-14.08,27.91-24.03,27.91-8.01,0-24.03-9.46-24.03-27.91,0-23.72,24.03-42.96,24.03-42.96,0,0,24.03,19.23,24.03,42.96Z"/>
  <path class="st0" d="M115.19,205.48c0,16.31-11.26,22.33-19.22,22.33-6.41,0-19.22-7.57-19.22-22.33,0-18.98,19.22-34.37,19.22-34.37,0,0,19.22,15.39,19.22,34.37Z"/>
  <path class="st0" d="M182.69,109.59c0,12.23-8.45,16.75-14.42,16.75-4.81,0-14.42-5.68-14.42-16.75,0-14.23,14.42-25.77,14.42-25.77,0,0,14.42,11.54,14.42,25.77Z"/>
  <path class="st0" d="M120.24,81.43c0,12.23-8.45,16.75-14.42,16.75-4.81,0-14.42-5.68-14.42-16.75,0-14.23,14.42-25.77,14.42-25.77,0,0,14.42,11.54,14.42,25.77Z"/>
</svg>