<?xml version="1.0" encoding="UTF-8"?>
<svg id="_图层_1" data-name="图层_1" xmlns="http://www.w3.org/2000/svg" version="1.1" viewBox="0 0 283.46 283.46">
  <!-- Generator: Adobe Illustrator 29.0.0, SVG Export Plug-In . SVG Version: 2.1.0 Build 186)  -->
  <defs>
    <style>
      .st0 {
        fill: #6cb92d;
      }

      .st1 {
        fill: #f4ec3d;
        stroke: #d4c71b;
        stroke-miterlimit: 10;
        stroke-width: 10px;
      }
    </style>
  </defs>
  <path class="st1" d="M194.78,102.96c-1.24,2.3-2.54,4.52-3.87,6.66,13.8,5.39,24.84,25.52,29.04,51.61,5.27,32.8-17.7,67.03-17.7,67.03,0,0-6.64-14.15-27.37-47.86-1.3-2.11-2.51-4.22-3.64-6.34-10.78,11.02-34.99,11.03-61.12,1.07-31.06-11.84-49.21-48.84-49.21-48.84,0,0,15.58,1.32,55.15.23,3.36-.09,6.65-.05,9.87.14-3.87-14.84,8.2-35.62,29.73-53.14,25.77-20.97,66.89-18.19,66.89-18.19,0,0-8.93,12.82-27.78,47.63Z"/>
  <circle class="st0" cx="162.75" cy="133.56" r="21.26"/>
</svg>