<?xml version="1.0" encoding="UTF-8"?>
<svg id="_图层_1" data-name="图层_1" xmlns="http://www.w3.org/2000/svg" version="1.1" viewBox="0 0 283.46 283.46">
  <!-- Generator: Adobe Illustrator 29.0.0, SVG Export Plug-In . SVG Version: 2.1.0 Build 186)  -->
  <defs>
    <style>
      .st0 {
        fill: #8fc31f;
        opacity: .75;
        stroke: #4fb233;
        stroke-width: 5px;
      }

      .st0, .st1 {
        stroke-miterlimit: 10;
      }

      .st1 {
        fill: #e72f29;
        stroke: #d1161b;
        stroke-width: 10px;
      }
    </style>
  </defs>
  <path class="st1" d="M180.05,155.86c-14.42,20.59-33.32,33.42-46.94,33.21-13.63.21-32.52-12.62-46.94-33.21-18.1-25.86-22.3-54.15-9.37-63.2,12.93-9.04,38.07,4.57,56.18,30.43.04.07.09.12.13.19.04-.07.09-.12.13-.19,18.09-25.86,43.25-39.47,56.18-30.43,12.93,9.06,8.72,37.35-9.37,63.2Z"/>
  <polygon class="st0" points="214.18 176.34 214.18 180.18 200.75 180.18 200.75 193.6 196.92 193.6 196.92 180.18 183.49 180.18 183.49 176.34 196.92 176.34 196.92 162.92 200.75 162.92 200.75 176.34 214.18 176.34"/>
</svg>