<?xml version="1.0" encoding="UTF-8"?>
<svg id="_图层_1" data-name="图层_1" xmlns="http://www.w3.org/2000/svg" version="1.1" viewBox="0 0 283.46 283.46">
  <!-- Generator: Adobe Illustrator 29.0.0, SVG Export Plug-In . SVG Version: 2.1.0 Build 186)  -->
  <defs>
    <style>
      .st0 {
        stroke-width: 5px;
      }

      .st0, .st1 {
        fill: #ea5723;
        stroke: #e53010;
        stroke-miterlimit: 10;
      }

      .st1 {
        stroke-width: 10px;
      }
    </style>
  </defs>
  <polygon class="st1" points="102.57 241.42 74.14 174.85 109.48 190.77 111.22 128.15 145.68 194.09 150.23 128.15 168.07 193.56 186.79 142.32 201.3 205.81 183.95 241.53 102.57 241.42"/>
  <polygon class="st0" points="237.67 123.7 217.24 111.08 218.99 87.12 237.75 100.6 237.67 123.7"/>
  <polygon class="st0" points="50.06 135.3 41.56 112.84 57.54 94.91 64.2 117.03 50.06 135.3"/>
  <polygon class="st0" points="141.35 83.01 128.9 62.47 141.35 41.93 151.93 62.47 141.35 83.01"/>
  <polygon class="st0" points="226.43 193.68 226.46 169.66 247.76 158.58 246.14 181.62 226.43 193.68"/>
  <polygon class="st0" points="48.15 238.4 35.7 217.86 48.15 197.32 58.73 217.86 48.15 238.4"/>
</svg>