<?xml version="1.0" encoding="UTF-8"?>
<svg id="_图层_1" data-name="图层_1" xmlns="http://www.w3.org/2000/svg" version="1.1" viewBox="0 0 283.46 283.46">
  <!-- Generator: Adobe Illustrator 29.0.0, SVG Export Plug-In . SVG Version: 2.1.0 Build 186)  -->
  <defs>
    <style>
      .st0 {
        fill: #b5b5b6;
        stroke: #9fa0a0;
        stroke-miterlimit: 10;
        stroke-width: 10px;
      }
    </style>
  </defs>
  <path class="st0" d="M161.98,119.72v.54c-31.14,0-56.4,25.08-56.68,56.16h-.04c-.28-31.08-25.54-56.16-56.66-56.16v-.54c31.3,0,56.68-25.38,56.68-56.68h.2c0,31.24,25.28,56.58,56.5,56.68Z"/>
  <path class="st0" d="M223.3,73.47v.41c-23.36,0-42.3,18.81-42.51,42.12h-.03c-.21-23.31-19.16-42.12-42.5-42.12v-.41c23.48,0,42.51-19.04,42.51-42.51h.15c0,23.43,18.96,42.44,42.38,42.51Z"/>
  <path class="st0" d="M129.08,209.98v.41c-23.36,0-42.3,18.81-42.51,42.12h-.03c-.21-23.31-19.16-42.12-42.5-42.12v-.41c23.48,0,42.51-19.04,42.51-42.51h.15c0,23.43,18.96,42.44,42.38,42.51Z"/>
  <path class="st0" d="M239.42,185.63v.47c-27.25,0-49.35,21.95-49.6,49.14h-.04c-.24-27.2-22.35-49.14-49.58-49.14v-.47c27.39,0,49.6-22.21,49.6-49.6h.18c0,27.34,22.12,49.51,49.44,49.6Z"/>
</svg>