<?xml version="1.0" encoding="UTF-8"?>
<svg id="_图层_1" data-name="图层_1" xmlns="http://www.w3.org/2000/svg" version="1.1" viewBox="0 0 283.46 283.46">
  <!-- Generator: Adobe Illustrator 29.0.0, SVG Export Plug-In . SVG Version: 2.1.0 Build 186)  -->
  <defs>
    <style>
      .st0 {
        fill: #7f191e;
        stroke: #a91f24;
        stroke-miterlimit: 10;
        stroke-width: 5px;
      }
    </style>
  </defs>
  <path class="st0" d="M78.02,147.08s38.42-16.05,50.85-24.34c11.57-7.71,42.02-37.58,42.02-37.58,0,0-38.59,16.17-50.85,24.34-12.26,8.17-42.02,37.58-42.02,37.58Z"/>
  <path class="st0" d="M140.19,167.99s35.01-22.55,45.79-32.89c10.03-9.62,34.77-44.37,34.77-44.37,0,0-35.15,22.69-45.79,32.89s-34.77,44.37-34.77,44.37Z"/>
  <path class="st0" d="M62.72,198.3s37.06-18.99,48.81-28.21c10.93-8.59,38.98-40.73,38.98-40.73,0,0-37.22,19.12-48.81,28.21-11.58,9.1-38.98,40.73-38.98,40.73Z"/>
</svg>