<?xml version="1.0" encoding="UTF-8"?>
<svg id="_图层_1" data-name="图层_1" xmlns="http://www.w3.org/2000/svg" version="1.1" viewBox="0 0 283.46 283.46">
  <!-- Generator: Adobe Illustrator 29.0.0, SVG Export Plug-In . SVG Version: 2.1.0 Build 186)  -->
  <defs>
    <style>
      .st0 {
        fill: #e8e965;
      }

      .st0, .st1 {
        stroke: #f5cd3c;
        stroke-miterlimit: 10;
        stroke-width: 10px;
      }

      .st1 {
        fill: none;
      }
    </style>
  </defs>
  <path class="st0" d="M189.7,188.33l-44.9,28.92c-1.65,1.06-3.76,1.06-5.4,0l-44.9-28.92c-1.43-.92-2.29-2.5-2.29-4.19v-101.29c0-2.76,2.23-4.99,4.99-4.99h89.81c2.76,0,4.99,2.23,4.99,4.99v101.29c0,1.7-.86,3.28-2.29,4.19Z"/>
  <line class="st1" x1="226.45" y1="145.51" x2="251.28" y2="145.51"/>
  <line class="st1" x1="221.34" y1="94.81" x2="245.44" y2="80.93"/>
  <line class="st1" x1="178.98" y1="53.54" x2="190.3" y2="32.36"/>
  <line class="st1" x1="122.01" y1="48.8" x2="115.07" y2="28.35"/>
  <line class="st1" x1="71.25" y1="71.07" x2="54.09" y2="58.29"/>
  <line class="st1" x1="56.28" y1="115.62" x2="32.18" y2="112.34"/>
  <line class="st1" x1="57.74" y1="161.63" x2="34.01" y2="166.75"/>
  <line class="st1" x1="75.27" y1="210.93" x2="61.03" y2="231.02"/>
  <line class="st1" x1="118.54" y1="229.92" x2="113.61" y2="255.12"/>
  <line class="st1" x1="177.37" y1="224.64" x2="186.5" y2="250.93"/>
  <line class="st1" x1="216.79" y1="202.29" x2="243.44" y2="215.44"/>
</svg>