<?xml version="1.0" encoding="UTF-8"?>
<svg id="_图层_1" data-name="图层_1" xmlns="http://www.w3.org/2000/svg" version="1.1" viewBox="0 0 283.46 283.46">
  <!-- Generator: Adobe Illustrator 29.0.0, SVG Export Plug-In . SVG Version: 2.1.0 Build 186)  -->
  <defs>
    <style>
      .st0 {
        fill: #24ab38;
        opacity: .9;
        stroke: #148f3b;
        stroke-miterlimit: 10;
        stroke-width: 10px;
      }
    </style>
  </defs>
  <path class="st0" d="M153.21,91.65c-16.95,9.78-17.4,40.73-17.4,40.73,0,0,27.03,15.08,43.97,5.3,16.95-9.78,24.74-28.02,17.4-40.73s-27.03-15.08-43.97-5.3Z"/>
  <path class="st0" d="M162.39,96.95c0,19.57-26.57,35.43-26.57,35.43,0,0-26.57-15.86-26.57-35.43s11.9-35.43,26.57-35.43,26.57,15.86,26.57,35.43Z"/>
  <path class="st0" d="M118.41,91.65c16.95,9.78,17.4,40.73,17.4,40.73,0,0-27.03,15.08-43.97,5.3-16.95-9.78-24.74-28.02-17.4-40.73,7.34-12.71,27.03-15.08,43.97-5.3Z"/>
  <path class="st0" d="M91.84,127.08c16.95-9.78,43.97,5.3,43.97,5.3,0,0-.45,30.95-17.4,40.73-16.95,9.78-36.63,7.41-43.97-5.3-7.34-12.71.45-30.95,17.4-40.73Z"/>
  <path class="st0" d="M162.39,167.81c0-19.57-26.57-35.43-26.57-35.43,0,0-26.57,15.86-26.57,35.43s11.9,35.43,26.57,35.43,26.57-15.86,26.57-35.43Z"/>
  <path class="st0" d="M179.79,127.08c-16.95-9.78-43.97,5.3-43.97,5.3,0,0,.45,30.95,17.4,40.73,16.95,9.78,36.63,7.41,43.97-5.3,7.34-12.71-.45-30.95-17.4-40.73Z"/>
</svg>