<?xml version="1.0" encoding="UTF-8"?>
<svg id="_图层_1" data-name="图层_1" xmlns="http://www.w3.org/2000/svg" version="1.1" viewBox="0 0 283.46 283.46">
  <!-- Generator: Adobe Illustrator 29.0.0, SVG Export Plug-In . SVG Version: 2.1.0 Build 186)  -->
  <defs>
    <style>
      .st0 {
        fill: #eaf6fd;
        stroke: #d3edfb;
      }

      .st0, .st1, .st2 {
        stroke-miterlimit: 10;
        stroke-width: 5px;
      }

      .st1 {
        fill: #e7231d;
        opacity: .75;
        stroke: #da1617;
      }

      .st2 {
        fill: #7fc8f0;
        stroke: #6ebbe9;
      }
    </style>
  </defs>
  <circle class="st0" cx="141.73" cy="141.73" r="92.13"/>
  <polygon class="st2" points="118.67 125.67 135.64 94.18 152.6 125.67 187.79 132.08 163.09 157.94 167.87 193.39 135.64 177.89 103.4 193.39 108.18 157.94 83.48 132.08 118.67 125.67"/>
  <polygon class="st2" points="180.24 99.07 185.09 90.07 189.93 99.07 199.99 100.9 192.93 108.29 194.3 118.42 185.09 113.99 175.88 118.42 177.24 108.29 170.18 100.9 180.24 99.07"/>
  <polygon class="st1" points="191.43 78.23 205.6 92.4 156 141.99 205.61 191.6 191.43 205.78 141.82 156.17 92.23 205.77 78.06 191.6 127.66 142.01 78.05 92.4 92.23 78.22 141.83 127.83 191.43 78.23"/>
</svg>