<?xml version="1.0" encoding="UTF-8"?>
<svg id="_图层_1" data-name="图层_1" xmlns="http://www.w3.org/2000/svg" version="1.1" viewBox="0 0 283.46 283.46">
  <!-- Generator: Adobe Illustrator 29.0.0, SVG Export Plug-In . SVG Version: 2.1.0 Build 186)  -->
  <defs>
    <style>
      .st0 {
        fill: #f1ec5b;
        stroke: #ebe83a;
        stroke-width: 5px;
      }

      .st0, .st1 {
        stroke-miterlimit: 10;
      }

      .st1 {
        fill: none;
        stroke: #b4a82e;
        stroke-width: 10px;
      }
    </style>
  </defs>
  <ellipse class="st1" cx="151.79" cy="137.44" rx="88.58" ry="70.87"/>
  <polygon class="st0" points="222.28 85.46 227.13 76.46 231.98 85.46 242.03 87.29 234.97 94.68 236.34 104.81 227.13 100.38 217.92 104.81 219.28 94.68 212.23 87.29 222.28 85.46"/>
  <polygon class="st0" points="137.2 64.85 142.05 55.85 146.9 64.85 156.95 66.68 149.89 74.07 151.26 84.19 142.05 79.77 132.84 84.19 134.21 74.07 127.15 66.68 137.2 64.85"/>
  <polygon class="st0" points="63.12 93.25 67.97 84.25 72.82 93.25 82.87 95.08 75.81 102.47 77.18 112.6 67.97 108.17 58.76 112.6 60.13 102.47 53.07 95.08 63.12 93.25"/>
  <polygon class="st0" points="65.83 177.41 70.67 168.41 75.52 177.41 85.58 179.24 78.52 186.63 79.88 196.76 70.67 192.33 61.46 196.76 62.83 186.63 55.77 179.24 65.83 177.41"/>
  <polygon class="st0" points="139.1 199.08 143.94 190.08 148.79 199.08 158.85 200.91 151.79 208.3 153.16 218.43 143.94 214 134.73 218.43 136.1 208.3 129.04 200.91 139.1 199.08"/>
  <polygon class="st0" points="229.1 170.52 233.95 161.53 238.79 170.52 248.85 172.35 241.79 179.74 243.16 189.87 233.95 185.44 224.74 189.87 226.1 179.74 219.04 172.35 229.1 170.52"/>
</svg>