<?xml version="1.0" encoding="UTF-8"?>
<svg id="_图层_1" data-name="图层_1" xmlns="http://www.w3.org/2000/svg" version="1.1" viewBox="0 0 283.46 283.46">
  <!-- Generator: Adobe Illustrator 29.0.0, SVG Export Plug-In . SVG Version: 2.1.0 Build 186)  -->
  <defs>
    <style>
      .st0 {
        fill: #66b72e;
        opacity: .8;
      }

      .st0, .st1 {
        stroke: #618f33;
        stroke-miterlimit: 10;
        stroke-width: 5px;
      }

      .st1 {
        fill: #69b82d;
        opacity: .5;
      }
    </style>
  </defs>
  <path class="st0" d="M176.69,161.14l14.08,36.64c.71,1.86-.66,3.85-2.65,3.85h-92.71c-1.95,0-3.32-1.93-2.68-3.77l13.1-37.56c.43-1.22-.02-2.58-1.11-3.29-11.99-7.8-19.59-19.31-19.59-32.15,0-23.49,25.38-42.52,56.69-42.52s56.69,19.03,56.69,42.52c0,13.23-8.06,25.05-20.7,32.85-1.15.71-1.62,2.15-1.13,3.41Z"/>
  <circle class="st1" cx="123.78" cy="124.46" r="9.54"/>
  <circle class="st1" cx="159.05" cy="124.46" r="9.54"/>
  <line class="st1" x1="121.08" y1="201.64" x2="126.48" y2="173.01"/>
  <line class="st1" x1="161.75" y1="201.64" x2="156.35" y2="173.01"/>
</svg>