<?xml version="1.0" encoding="UTF-8"?>
<svg id="_图层_1" data-name="图层_1" xmlns="http://www.w3.org/2000/svg" version="1.1" viewBox="0 0 283.46 283.46">
  <!-- Generator: Adobe Illustrator 29.0.0, SVG Export Plug-In . SVG Version: 2.1.0 Build 186)  -->
  <defs>
    <style>
      .st0 {
        fill: #e72f29;
        stroke: #d1161b;
        stroke-miterlimit: 10;
        stroke-width: 10px;
      }
    </style>
  </defs>
  <path class="st0" d="M207.53,138.03c-14.42,20.59-33.32,33.42-46.94,33.21-13.63.21-32.52-12.62-46.94-33.21-18.1-25.86-22.3-54.15-9.37-63.2,12.93-9.04,38.07,4.57,56.18,30.43.04.07.09.12.13.19.04-.07.09-.12.13-.19,18.09-25.86,43.25-39.47,56.18-30.43,12.93,9.06,8.72,37.35-9.37,63.2Z"/>
  <path class="st0" d="M163.48,163.35c-10.73,15.32-24.79,24.87-34.93,24.71-10.14.16-24.2-9.39-34.93-24.71-13.47-19.24-16.59-40.29-6.97-47.03,9.62-6.73,28.33,3.4,41.8,22.64.03.05.07.09.1.14.03-.05.07-.09.1-.14,13.46-19.24,32.18-29.37,41.8-22.64,9.62,6.74,6.49,27.79-6.97,47.03Z"/>
  <path class="st0" d="M128.68,190.56c-9.06,12.94-20.94,21.01-29.51,20.87-8.57.14-20.44-7.93-29.51-20.87-11.38-16.25-14.01-34.04-5.89-39.73,8.13-5.69,23.93,2.87,35.31,19.13.03.04.06.08.08.12.03-.04.06-.08.08-.12,11.37-16.25,27.18-24.81,35.31-19.13,8.13,5.69,5.48,23.48-5.89,39.73Z"/>
</svg>