<?xml version="1.0" encoding="UTF-8"?>
<svg id="_图层_1" data-name="图层_1" xmlns="http://www.w3.org/2000/svg" version="1.1" viewBox="0 0 283.46 283.46">
  <!-- Generator: Adobe Illustrator 29.0.0, SVG Export Plug-In . SVG Version: 2.1.0 Build 186)  -->
  <defs>
    <style>
      .st0 {
        fill: #e6e6e6;
        stroke: #c9caca;
        stroke-width: 10px;
      }

      .st0, .st1 {
        stroke-miterlimit: 10;
      }

      .st1 {
        fill: #e7231d;
        opacity: .75;
        stroke: #da1617;
        stroke-width: 5px;
      }
    </style>
  </defs>
  <path class="st0" d="M195.83,187.61l-51.02,32.87c-1.87,1.2-4.27,1.2-6.14,0l-51.02-32.87c-1.62-1.04-2.6-2.84-2.6-4.77v-115.09c0-3.13,2.54-5.67,5.67-5.67h102.05c3.13,0,5.67,2.54,5.67,5.67v115.09c0,1.93-.98,3.72-2.6,4.77Z"/>
  <polygon class="st1" points="180.71 78.4 191.73 89.42 153.15 128 191.73 166.58 180.71 177.61 142.12 139.02 103.55 177.6 92.53 166.58 131.1 128 92.52 89.42 103.55 78.39 142.13 116.98 180.71 78.4"/>
</svg>