<?xml version="1.0" encoding="UTF-8"?>
<svg id="_图层_1" data-name="图层_1" xmlns="http://www.w3.org/2000/svg" version="1.1" viewBox="0 0 283.46 283.46">
  <!-- Generator: Adobe Illustrator 29.0.0, SVG Export Plug-In . SVG Version: 2.1.0 Build 186)  -->
  <defs>
    <style>
      .st0, .st1 {
        fill: #fff;
      }

      .st2 {
        fill: none;
        stroke: #fff;
        stroke-width: 5px;
      }

      .st2, .st3 {
        stroke-miterlimit: 10;
      }

      .st3 {
        fill: #f3ef7a;
        stroke: #eae125;
        stroke-width: 10px;
      }

      .st1 {
        opacity: .75;
      }
    </style>
  </defs>
  <circle class="st3" cx="142.13" cy="142" r="106.3"/>
  <ellipse class="st2" cx="141.73" cy="99.21" rx="56.69" ry="21.26"/>
  <path class="st1" d="M167.02,215.93h-50.58c-1.65,0-2.95-1.4-2.83-3.05l7.69-102.47c.33-4.44,4.03-7.87,8.48-7.87h23.9c4.45,0,8.15,3.43,8.48,7.87l7.69,102.47c.12,1.64-1.18,3.05-2.83,3.05Z"/>
  <path class="st0" d="M100.83,106.3v.07c-3.89,0-7.05,3.14-7.09,7.02h0c-.03-3.89-3.19-7.02-7.08-7.02v-.07c3.91,0,7.09-3.17,7.09-7.09h.03c0,3.91,3.16,7.07,7.06,7.09Z"/>
  <path class="st0" d="M189.36,113.38v.07c-3.89,0-7.05,3.14-7.09,7.02h0c-.03-3.89-3.19-7.02-7.08-7.02v-.07c3.91,0,7.09-3.17,7.09-7.09h.03c0,3.91,3.16,7.07,7.06,7.09Z"/>
  <path class="st0" d="M124.13,116.71v.07c-3.89,0-7.05,3.14-7.09,7.02h0c-.03-3.89-3.19-7.02-7.08-7.02v-.07c3.91,0,7.09-3.17,7.09-7.09h.03c0,3.91,3.16,7.07,7.06,7.09Z"/>
  <path class="st0" d="M104.96,85.04v.07c-3.89,0-7.05,3.14-7.09,7.02h0c-.03-3.89-3.19-7.02-7.08-7.02v-.07c3.91,0,7.09-3.17,7.09-7.09h.03c0,3.91,3.16,7.07,7.06,7.09Z"/>
  <path class="st0" d="M135.87,77.95v.07c-3.89,0-7.05,3.14-7.09,7.02h0c-.03-3.89-3.19-7.02-7.08-7.02v-.07c3.91,0,7.09-3.17,7.09-7.09h.03c0,3.91,3.16,7.07,7.06,7.09Z"/>
  <path class="st0" d="M173.86,77.95v.07c-3.89,0-7.05,3.14-7.09,7.02h0c-.03-3.89-3.19-7.02-7.08-7.02v-.07c3.91,0,7.09-3.17,7.09-7.09h.03c0,3.91,3.16,7.07,7.06,7.09Z"/>
  <path class="st0" d="M156.74,116.71v.07c-3.89,0-7.05,3.14-7.09,7.02h0c-.03-3.89-3.19-7.02-7.08-7.02v-.07c3.91,0,7.09-3.17,7.09-7.09h.03c0,3.91,3.16,7.07,7.06,7.09Z"/>
  <path class="st0" d="M199.71,92.12v.07c-3.89,0-7.05,3.14-7.09,7.02h0c-.03-3.89-3.19-7.02-7.08-7.02v-.07c3.91,0,7.09-3.17,7.09-7.09h.03c0,3.91,3.16,7.07,7.06,7.09Z"/>
</svg>