<?xml version="1.0" encoding="UTF-8"?>
<svg id="_图层_1" data-name="图层_1" xmlns="http://www.w3.org/2000/svg" version="1.1" viewBox="0 0 283.46 283.46">
  <!-- Generator: Adobe Illustrator 29.0.0, SVG Export Plug-In . SVG Version: 2.1.0 Build 186)  -->
  <defs>
    <style>
      .st0 {
        fill: #f5e452;
        stroke: #dfc51a;
        stroke-width: 10px;
      }

      .st0, .st1, .st2, .st3 {
        stroke-miterlimit: 10;
      }

      .st1 {
        fill: none;
      }

      .st1, .st3 {
        stroke: #f7f8f8;
        stroke-width: 5px;
      }

      .st2 {
        stroke: #efefef;
        stroke-width: 3px;
      }

      .st2, .st3 {
        fill: #fff;
      }
    </style>
  </defs>
  <circle class="st0" cx="141.83" cy="142" r="106.3"/>
  <rect class="st3" x="85.94" y="92.4" width="65.14" height="104.22" rx="5.67" ry="5.67" transform="translate(107.7 -42.07) rotate(36.04)"/>
  <path class="st1" d="M148.44,99.03c9.76-13.2,28.07-18.16,41.79-7.88"/>
  <polygon class="st3" points="195.36 79.9 188.12 101.73 210.65 97.08 195.36 79.9"/>
  <g>
    <path class="st2" d="M158.22,179.19h6.47v19.76c0,.16-.13.28-.28.28h-5.91c-.16,0-.28-.13-.28-.28v-19.76h0Z" transform="translate(223.18 -51.75) rotate(54.84)"/>
    <path class="st2" d="M185.44,200.03c-2.64,1.86-10.59-4.88-17.76-15.05-7.17-10.17-10.83-19.93-8.19-21.79s28.59,34.98,25.95,36.84Z"/>
    <path class="st2" d="M219.27,148.15l-51.36,28.06c-.15.08-.19.27-.1.41l7.64,10.85c.1.14.29.16.42.05l43.72-38.91c.25-.22-.03-.62-.32-.46Z"/>
  </g>
</svg>