<?xml version="1.0" encoding="UTF-8"?>
<svg id="_图层_1" data-name="图层_1" xmlns="http://www.w3.org/2000/svg" version="1.1" viewBox="0 0 283.46 283.46">
  <!-- Generator: Adobe Illustrator 29.0.0, SVG Export Plug-In . SVG Version: 2.1.0 Build 186)  -->
  <defs>
    <style>
      .st0 {
        fill: #d63317;
        stroke: #bf3f1f;
        stroke-width: 10px;
      }

      .st0, .st1 {
        stroke-miterlimit: 10;
      }

      .st2 {
        fill: #fff;
      }

      .st1 {
        fill: none;
        stroke: #fff;
        stroke-width: 2px;
      }
    </style>
  </defs>
  <circle class="st0" cx="141.73" cy="141.73" r="106.3"/>
  <g>
    <circle class="st2" cx="105.38" cy="110.99" r="19.71"/>
    <g>
      <g>
        <line class="st1" x1="115.63" y1="119.95" x2="167.29" y2="163.63"/>
        <line class="st1" x1="118.17" y1="116.94" x2="169.83" y2="160.62"/>
        <line class="st1" x1="112.82" y1="123.28" x2="164.47" y2="166.96"/>
        <line class="st1" x1="120.58" y1="114.09" x2="172.24" y2="157.77"/>
        <line class="st1" x1="110.14" y1="126.45" x2="161.79" y2="170.13"/>
      </g>
      <g>
        <line class="st1" x1="114.06" y1="121.95" x2="169.33" y2="160.96"/>
        <line class="st1" x1="116.34" y1="118.73" x2="171.6" y2="157.74"/>
        <line class="st1" x1="111.55" y1="125.51" x2="166.82" y2="164.52"/>
        <line class="st1" x1="118.49" y1="115.68" x2="173.76" y2="154.68"/>
        <line class="st1" x1="109.16" y1="128.9" x2="164.42" y2="167.91"/>
      </g>
      <g>
        <line class="st1" x1="118.19" y1="117.72" x2="165.84" y2="165.73"/>
        <line class="st1" x1="120.98" y1="114.94" x2="168.64" y2="162.95"/>
        <line class="st1" x1="115.09" y1="120.78" x2="162.75" y2="168.8"/>
        <line class="st1" x1="123.64" y1="112.31" x2="171.29" y2="160.32"/>
        <line class="st1" x1="112.15" y1="123.71" x2="159.8" y2="171.72"/>
      </g>
    </g>
    <circle class="st2" cx="178.09" cy="172.47" r="19.71"/>
  </g>
</svg>