<?xml version="1.0" encoding="UTF-8"?>
<svg id="_图层_1" data-name="图层_1" xmlns="http://www.w3.org/2000/svg" version="1.1" viewBox="0 0 283.46 283.46">
  <!-- Generator: Adobe Illustrator 29.0.0, SVG Export Plug-In . SVG Version: 2.1.0 Build 186)  -->
  <defs>
    <style>
      .st0 {
        fill: #6dc7da;
        stroke: #31b8b8;
        stroke-miterlimit: 10;
        stroke-width: 10px;
      }
    </style>
  </defs>
  <path class="st0" d="M60.9,157.14c-6.18-27.42,17.08-52.23,24.33-59.97,9.27-9.89,26.77-28.56,46.52-26.08,15.15,1.9,17.22,14.43,42.79,23.06,14.93,5.04,17.08,1.73,25.42,6.7,21.22,12.64,23.22,43.52,23.5,47.84.2,3.02,2.26,42.41-20.51,55.79-10.47,6.15-14.57-.02-48.4,3.75-22.89,2.55-25.1,5.83-35.86,3.66-16.63-3.35-27.63-14.46-36.3-23.22-10.62-10.73-18.64-18.83-21.5-31.54Z"/>
</svg>