<?xml version="1.0" encoding="UTF-8"?>
<svg id="_图层_1" data-name="图层_1" xmlns="http://www.w3.org/2000/svg" version="1.1" viewBox="0 0 283.46 283.46">
  <!-- Generator: Adobe Illustrator 29.0.0, SVG Export Plug-In . SVG Version: 2.1.0 Build 186)  -->
  <defs>
    <style>
      .st0 {
        fill: #2f2725;
      }

      .st0, .st1 {
        stroke: #231815;
        stroke-miterlimit: 10;
        stroke-width: 10px;
      }

      .st2 {
        fill: #9fa0a0;
      }

      .st1 {
        fill: #231815;
      }
    </style>
  </defs>
  <path class="st1" d="M124.51,181.21h34.44c1.07,0,1.81,1.05,1.46,2.06l-17.22,49.54c-.48,1.39-2.45,1.39-2.93,0l-17.22-49.54c-.35-1.01.4-2.06,1.46-2.06Z"/>
  <path class="st1" d="M124.51,102.25h34.44c1.07,0,1.81-1.05,1.46-2.06l-17.22-49.54c-.48-1.39-2.45-1.39-2.93,0l-17.22,49.54c-.35,1.01.4,2.06,1.46,2.06Z"/>
  <path class="st1" d="M181.21,158.95v-34.44c0-1.07,1.05-1.81,2.06-1.46l49.54,17.22c1.39.48,1.39,2.45,0,2.93l-49.54,17.22c-1.01.35-2.06-.4-2.06-1.46Z"/>
  <path class="st1" d="M102.25,158.95v-34.44c0-1.07-1.05-1.81-2.06-1.46l-49.54,17.22c-1.39.48-1.39,2.45,0,2.93l49.54,17.22c1.01.35,2.06-.4,2.06-1.46Z"/>
  <path class="st1" d="M157.47,181.83l24.35-24.35c.75-.75,2.03-.54,2.49.42l22.86,47.21c.64,1.32-.75,2.71-2.07,2.07l-47.21-22.86c-.96-.46-1.17-1.74-.42-2.49Z"/>
  <path class="st1" d="M101.64,125.99l24.35-24.35c.75-.75.54-2.03-.42-2.49l-47.21-22.86c-1.32-.64-2.71.75-2.07,2.07l22.86,47.21c.46.96,1.74,1.17,2.49.42Z"/>
  <path class="st1" d="M181.83,125.99l-24.35-24.35c-.75-.75-.54-2.03.42-2.49l47.21-22.86c1.32-.64,2.71.75,2.07,2.07l-22.86,47.21c-.46.96-1.74,1.17-2.49.42Z"/>
  <path class="st1" d="M125.99,181.83l-24.35-24.35c-.75-.75-2.03-.54-2.49.42l-22.86,47.21c-.64,1.32.75,2.71,2.07,2.07l47.21-22.86c.96-.46,1.17-1.74.42-2.49Z"/>
  <circle class="st0" cx="141.73" cy="141.73" r="52.64"/>
  <circle class="st2" cx="159.63" cy="116.46" r="12.86"/>
</svg>