<?xml version="1.0" encoding="UTF-8"?>
<svg id="_图层_1" data-name="图层_1" xmlns="http://www.w3.org/2000/svg" version="1.1" viewBox="0 0 283.46 283.46">
  <!-- Generator: Adobe Illustrator 29.0.0, SVG Export Plug-In . SVG Version: 2.1.0 Build 186)  -->
  <defs>
    <style>
      .st0 {
        fill: #f6af26;
        stroke: #f49e28;
      }

      .st0, .st1 {
        stroke-miterlimit: 10;
        stroke-width: 5px;
      }

      .st1 {
        fill: #b35721;
        stroke: #ad5522;
      }
    </style>
  </defs>
  <path class="st0" d="M190.42,64.36h-5.23c2.85,6.91,1.67,21.73-2.81,28.89-6.6,10.55-26.62,20.3-35.62,18.95v25.46h-9.44v-25.46c-8.98,1.4-26.7-6.67-33.48-17.14-7.28-11.23-8.38-24.41-5.44-30.69h-5.37c-.63,0-1.07-.62-.86-1.22l10.14-29.19c.28-.82,1.44-.82,1.72,0l10.14,29.19c.21.6-.23,1.22-.86,1.22h-4.59c1.21,5.25-1.75,15.38,6.08,25.48,6.81,8.79,16.11,8.22,22.51,8.85v-49.84h-5.58c-.63,0-1.07-.62-.86-1.22l10.14-29.19c.28-.82,1.44-.82,1.72,0l10.14,29.19c.21.6-.24,1.22-.86,1.22h-5.27v49.84c6.4-.63,15.65-.09,22.44-8.84,7.94-10.25,4.78-20.27,6.13-25.48h-5.21c-.63,0-1.07-.62-.86-1.22l10.14-29.19c.28-.82,1.44-.82,1.72,0l10.14,29.19c.21.6-.23,1.22-.86,1.22Z"/>
  <rect class="st1" x="137.33" y="137.66" width="9.44" height="121.15"/>
</svg>