<?xml version="1.0" encoding="UTF-8"?>
<svg id="_图层_1" data-name="图层_1" xmlns="http://www.w3.org/2000/svg" version="1.1" viewBox="0 0 283.46 283.46">
  <!-- Generator: Adobe Illustrator 29.0.0, SVG Export Plug-In . SVG Version: 2.1.0 Build 186)  -->
  <defs>
    <style>
      .st0 {
        fill: #efefef;
        stroke: #c9caca;
        stroke-miterlimit: 10;
        stroke-width: 10px;
      }
    </style>
  </defs>
  <path class="st0" d="M194.9,135.46c-20.07,15.96-27.92,41.99-21.58,65.58.06.23-.18.4-.38.27-20.6-13.4-47.97-13.9-69.41.5-.2.13-.45-.04-.38-.27,4.94-17.83,2-37.67-9.73-53.81-3.42-4.71-7.37-8.8-11.71-12.26-.19-.15-.09-.43.15-.44,11.93-.51,23.84-4.42,34.23-11.96s17.78-17.67,21.96-28.86c.08-.22.39-.22.47,0,1.95,5.2,4.62,10.21,8.04,14.92,11.73,16.15,29.71,25.08,48.21,25.88.24.01.33.3.14.45Z"/>
</svg>