<?xml version="1.0" encoding="UTF-8"?>
<svg id="_图层_1" data-name="图层_1" xmlns="http://www.w3.org/2000/svg" version="1.1" viewBox="0 0 283.46 283.46">
  <!-- Generator: Adobe Illustrator 29.0.0, SVG Export Plug-In . SVG Version: 2.1.0 Build 186)  -->
  <defs>
    <style>
      .st0 {
        fill: #44b035;
        stroke: #20a139;
      }

      .st0, .st1 {
        stroke-miterlimit: 10;
        stroke-width: 10px;
      }

      .st1 {
        fill: #e83730;
        stroke: #ea5554;
      }
    </style>
  </defs>
  <path class="st1" d="M183.04,108.16c31.73,4.86,17.28,86.52-31.46,96.28-59.62,11.94-90.21-29.36-91.26-56.64,0,0,28.85,50.27,68.43,38.73,42-12.24,26.89-82.57,54.29-78.37Z"/>
  <polygon class="st0" points="223.15 138.94 189.21 119.35 186.91 118.02 186.36 119.35 176.71 142.8 172.26 119.35 173.52 126 168.46 124.44 138.24 135.57 153.35 104.92 153.35 104.92 157.06 101.39 175.65 101.39 179.36 76.91 191.81 76.91 193.87 101.39 211.62 101.39 211.62 102.58 212.02 102.51 223.15 138.94"/>
  <polygon class="st0" points="165.97 86.4 163.12 86.4 163.67 85.07 165.97 86.4"/>
</svg>