<?xml version="1.0" encoding="UTF-8"?>
<svg id="_图层_1" data-name="图层_1" xmlns="http://www.w3.org/2000/svg" version="1.1" viewBox="0 0 283.46 283.46">
  <!-- Generator: Adobe Illustrator 29.0.0, SVG Export Plug-In . SVG Version: 2.1.0 Build 186)  -->
  <defs>
    <style>
      .st0 {
        fill: #f7f8f8;
        stroke: #d7d7d8;
        stroke-miterlimit: 10;
        stroke-width: 10px;
      }
    </style>
  </defs>
  <path class="st0" d="M211.94,71.53c-4.55,3.46,2.08-5.88,2.08-9.17,0-11.74-9.52-21.26-21.26-21.26s-21.26,9.52-21.26,21.26c0,8.01,4.42,14.98,10.96,18.6l-101.5,101.5c-3.62-6.54-10.59-10.96-18.6-10.96-11.74,0-21.26,9.51-21.26,21.26s9.52,21.26,21.26,21.26c3.29,0,6.4-.75,9.17-2.08,3.08-3.34-2.08,5.88-2.08,9.16,0,11.74,9.52,21.26,21.26,21.26s21.26-9.52,21.26-21.26c0-8-4.42-14.98-10.96-18.6l101.49-101.49c3.62,6.54,10.6,10.96,18.6,10.96,11.74,0,21.26-9.52,21.26-21.26s-9.52-21.26-21.26-21.26c-3.28,0-6.39.74-9.16,2.08"/>
</svg>