<?xml version="1.0" encoding="UTF-8"?>
<svg id="_图层_1" data-name="图层_1" xmlns="http://www.w3.org/2000/svg" version="1.1" viewBox="0 0 283.46 283.46">
  <!-- Generator: Adobe Illustrator 29.0.0, SVG Export Plug-In . SVG Version: 2.1.0 Build 186)  -->
  <defs>
    <style>
      .st0 {
        fill: #d37aae;
        stroke: #bc6aa7;
        stroke-miterlimit: 10;
        stroke-width: 5px;
      }
    </style>
  </defs>
  <path class="st0" d="M188.43,154.56c-17.54-1.84-39.1-12.21-47.36-17.77-1.03-.68-1.96-1.34-2.81-1.97-.85.63-1.79,1.29-2.81,1.98-8.27,5.55-29.83,15.92-47.37,17.76-42.96,4.51-38.75-5.95-34.25-8.92,6.77-4.46,41.72,8.62,76.92-16.42l.21-.15c-.07-.05-.14-.1-.21-.15-35.2-25.04-70.15-11.96-76.92-16.42-4.5-2.97-8.71-13.43,34.25-8.92,17.54,1.84,39.1,12.21,47.37,17.76,1.02.69,1.96,1.35,2.81,1.98.85-.63,1.78-1.29,2.81-1.97,8.26-5.56,29.82-15.93,47.36-17.77,42.96-4.52,38.75,5.94,34.26,8.91-6.77,4.47-41.73-8.61-76.92,16.43-.07.05-.14.1-.21.15l.21.15c35.19,25.04,70.15,11.96,76.92,16.43,4.49,2.97,8.7,13.43-34.26,8.91Z"/>
</svg>