<?xml version="1.0" encoding="UTF-8"?>
<svg id="_图层_1" data-name="图层_1" xmlns="http://www.w3.org/2000/svg" version="1.1" viewBox="0 0 283.46 283.46">
  <!-- Generator: Adobe Illustrator 29.0.0, SVG Export Plug-In . SVG Version: 2.1.0 Build 186)  -->
  <defs>
    <style>
      .st0 {
        fill: #f6f183;
        stroke: #e5e75b;
      }

      .st0, .st1, .st2 {
        stroke-miterlimit: 10;
        stroke-width: 5px;
      }

      .st1 {
        fill: #e41b12;
        stroke: #e72f22;
      }

      .st2 {
        fill: #ebe93f;
        font-family: Ubuntu-Bold, Ubuntu;
        font-size: 69.61px;
        font-weight: 700;
        stroke: #d1de35;
      }
    </style>
  </defs>
  <rect class="st0" x="92.13" y="56.58" width="17.01" height="155.6" transform="translate(-19.74 17.35) rotate(-8.98)"/>
  <rect class="st0" x="108.91" y="53.93" width="17.01" height="155.6" transform="translate(-4.52 4.18) rotate(-2)"/>
  <rect class="st0" x="126.2" y="56.37" width="17.01" height="155.6" transform="translate(63.6 -42.15) rotate(23.15)"/>
  <rect class="st0" x="132.22" y="53.03" width="17.01" height="155.6"/>
  <rect class="st0" x="158.73" y="56.58" width="17.01" height="155.6" transform="translate(6.32 -7.51) rotate(2.62)"/>
  <rect class="st0" x="149.18" y="56.58" width="17.01" height="155.6" transform="translate(94.92 -63.06) rotate(31.93)"/>
  <rect class="st0" x="132.22" y="56.58" width="17.01" height="155.6" transform="translate(-46.28 80.62) rotate(-27.64)"/>
  <path class="st1" d="M77.41,108.86h121.58v80.16c0,22.86-18.56,41.41-41.41,41.41h-35.89c-24.43,0-44.27-19.84-44.27-44.27v-77.31h0Z"/>
  <text class="st2" transform="translate(109.12 192.96)"><tspan x="0" y="0">M</tspan></text>
</svg>