<?xml version="1.0" encoding="UTF-8"?>
<svg id="_图层_1" data-name="图层_1" xmlns="http://www.w3.org/2000/svg" version="1.1" viewBox="0 0 283.46 283.46">
  <!-- Generator: Adobe Illustrator 29.0.0, SVG Export Plug-In . SVG Version: 2.1.0 Build 186)  -->
  <defs>
    <style>
      .st0 {
        fill: #a91f24;
        stroke: #911d22;
        stroke-miterlimit: 10;
        stroke-width: 15px;
      }
    </style>
  </defs>
  <path class="st0" d="M89.67,61.28l51.95,38.36c.07.05.16.05.23,0l51.95-38.36c.15-.11.36.04.3.22l-20.43,61.26c-.03.08,0,.17.07.22l52.53,37.55c.16.11.08.36-.12.35l-64.57-.5c-.09,0-.16.05-.19.14l-19.48,61.56c-.06.18-.31.18-.37,0l-19.48-61.56c-.03-.08-.1-.14-.19-.14l-64.57.5c-.19,0-.27-.24-.12-.35l52.53-37.55c.07-.05.1-.14.07-.22l-20.43-61.26c-.06-.18.15-.33.3-.22Z"/>
</svg>