<?xml version="1.0" encoding="UTF-8"?>
<svg id="_图层_1" data-name="图层_1" xmlns="http://www.w3.org/2000/svg" version="1.1" viewBox="0 0 283.46 283.46">
  <!-- Generator: Adobe Illustrator 29.0.0, SVG Export Plug-In . SVG Version: 2.1.0 Build 186)  -->
  <defs>
    <style>
      .st0 {
        fill: #ac3c23;
        stroke: #8e3b22;
      }

      .st0, .st1, .st2, .st3 {
        stroke-miterlimit: 10;
        stroke-width: 5px;
      }

      .st1 {
        fill: #e11c13;
        stroke: #bd1b21;
      }

      .st2 {
        fill: #e4e4e5;
        stroke: #cdcece;
      }

      .st3 {
        fill: #aaabab;
        stroke: #929292;
      }
    </style>
  </defs>
  <path class="st2" d="M90.68,171.94l88.76-58.72c.14-.09.17-.29.06-.42l-15.51-18.49c-.11-.13-.31-.14-.42-.01l-73.24,77.21c-.23.24.08.62.36.43Z"/>
  <path class="st3" d="M144.53,73.71c4.41-3.7,19.53,7.06,33.78,24.04,14.25,16.98,22.22,33.74,17.81,37.44s-56-57.78-51.59-61.48Z"/>
  <path class="st0" d="M182.95,71.45h11.53v35.41c0,.16-.13.28-.28.28h-10.96c-.16,0-.28-.13-.28-.28v-35.41h0Z" transform="translate(241.62 291.27) rotate(-130)"/>
  <path class="st1" d="M77.49,196.38c0,10.3,7.11,14.1,12.14,14.1,4.05,0,12.14-4.78,12.14-14.1,0-11.98-12.14-21.7-12.14-21.7,0,0-12.14,9.72-12.14,21.7Z"/>
</svg>