<?xml version="1.0" encoding="UTF-8"?>
<svg id="_图层_1" data-name="图层_1" xmlns="http://www.w3.org/2000/svg" version="1.1" viewBox="0 0 283.5 283.5">
  <!-- Generator: Adobe Illustrator 29.0.0, SVG Export Plug-In . SVG Version: 2.1.0 Build 186)  -->
  <defs>
    <style>
      .st0 {
        stroke: #662a17;
        stroke-width: 5px;
      }

      .st0, .st1 {
        fill: none;
        stroke-linecap: round;
        stroke-linejoin: round;
      }

      .st1 {
        stroke: #a35623;
        stroke-width: 24px;
      }

      .st2 {
        fill: #a35623;
      }
    </style>
  </defs>
  <g>
    <circle class="st2" cx="133.5" cy="142.8" r="40"/>
    <path class="st1" d="M114.6,122.8c11.5-9.9,28.1-12.7,43.4-7.2,20.2,7.4,27.9,25.7,28.8,27.9"/>
  </g>
  <path class="st0" d="M139,136.9c1.4,0,3.5,0,5.4,1.3,4.2,2.7,5.1,9.3,3.2,13.3-3.1,6.3-14.4,8.1-21.9,3.6-6.8-4.1-9.5-12.9-7.5-19.6,3.7-12.3,21.9-13.2,23.9-13.3,2.4-.1,14.9-.7,22.1,7.3,2,2.3,5.3,7.4,6.7,10.1.7,1.5,1.3,2.6,2.5,4.9.3.5.5,1,.9,1.7,0,.2,1.2,2.1,2,3.4.5.7,1.7,2.8,3.6,4.1.6.4,3.9,2.8,8.2,2.2,5-.6,8.7-4.8,9.9-8.6.6-1.8,1.4-6-4.3-15.7-3.1-5.3-8.4-14.1-19.3-21.3-12.3-8-24.2-9-30.3-9.5-7.5-.6-13.9.3-19.4,2.1-10.6,3.5-17,9.6-18.3,10.8-2.7,2.6-11,11.1-12.5,24.8-2.2,19.9,11.9,33.3,12.7,34,.7.7,15.3,13.5,34.8,9.7,10.9-2.1,17.8-8.3,20.1-10.6,7.4-7.2,9.8-15.3,11.1-19.8,2.2-7.8,1.3-3.1.9-7.2"/>
</svg>