<?xml version="1.0" encoding="UTF-8"?>
<svg id="_图层_1" data-name="图层_1" xmlns="http://www.w3.org/2000/svg" version="1.1" viewBox="0 0 283.46 283.46">
  <!-- Generator: Adobe Illustrator 29.0.0, SVG Export Plug-In . SVG Version: 2.1.0 Build 186)  -->
  <defs>
    <style>
      .st0 {
        fill: #e8e965;
        stroke: #f5cd3c;
      }

      .st0, .st1 {
        stroke-miterlimit: 10;
        stroke-width: 10px;
      }

      .st1 {
        fill: #704820;
        stroke: #673e1d;
      }
    </style>
  </defs>
  <path class="st0" d="M195.83,187.61l-51.02,32.87c-1.87,1.2-4.27,1.2-6.14,0l-51.02-32.87c-1.62-1.04-2.6-2.84-2.6-4.77v-115.09c0-3.13,2.54-5.67,5.67-5.67h102.05c3.13,0,5.67,2.54,5.67,5.67v115.09c0,1.93-.98,3.72-2.6,4.77Z"/>
  <path class="st1" d="M189.04,214.33c-7.36,9.12-25.46-10.13-33.52-7.45-16.93,5.62-18.12-16.29-4.39-35.5,18.88-26.41,28.57.92,43.44,8.14,35.66,17.31,5.17,21.56-5.53,34.81Z"/>
</svg>