<?xml version="1.0" encoding="UTF-8"?>
<svg id="_图层_1" data-name="图层_1" xmlns="http://www.w3.org/2000/svg" version="1.1" viewBox="0 0 283.46 283.46">
  <!-- Generator: Adobe Illustrator 29.0.0, SVG Export Plug-In . SVG Version: 2.1.0 Build 186)  -->
  <defs>
    <style>
      .st0 {
        fill: #b5b5b6;
        stroke: #9fa0a0;
      }

      .st0, .st1, .st2, .st3 {
        stroke-miterlimit: 10;
      }

      .st0, .st2, .st3 {
        stroke-width: 5px;
      }

      .st0, .st3 {
        opacity: .2;
      }

      .st1 {
        fill: #f8ef9e;
        stroke: #f6e56b;
        stroke-width: 10px;
      }

      .st2 {
        fill: #e7231d;
        opacity: .75;
        stroke: #da1617;
      }

      .st3 {
        fill: #fff;
        stroke: #898989;
      }
    </style>
  </defs>
  <circle class="st1" cx="141.73" cy="141.73" r="113.39"/>
  <path class="st3" d="M149.16,244.82l-85.67-32.1c-3.14-1.18-4.58-4.81-3.09-7.82L127.23,69.79c1.29-2.61,4.35-3.82,7.07-2.8l85.67,32.1c3.14,1.18,4.58,4.81,3.09,7.82l-66.83,135.1c-1.29,2.61-4.35,3.82-7.07,2.8Z"/>
  <path class="st3" d="M149.16,241.98l-85.67-32.1c-3.14-1.18-4.58-4.81-3.09-7.82L127.23,66.96c1.29-2.61,4.35-3.82,7.07-2.8l85.67,32.1c3.14,1.18,4.58,4.81,3.09,7.82l-66.83,135.1c-1.29,2.61-4.35,3.82-7.07,2.8Z"/>
  <path class="st3" d="M149.16,241.98l-85.67-32.1c-3.14-1.18-4.58-4.81-3.09-7.82L127.23,66.96c1.29-2.61,4.35-3.82,7.07-2.8l85.67,32.1c3.14,1.18,4.58,4.81,3.09,7.82l-66.83,135.1c-1.29,2.61-4.35,3.82-7.07,2.8Z"/>
  <path class="st3" d="M149.16,239.15l-85.67-32.1c-3.14-1.18-4.58-4.81-3.09-7.82L127.23,64.12c1.29-2.61,4.35-3.82,7.07-2.8l85.67,32.1c3.14,1.18,4.58,4.81,3.09,7.82l-66.83,135.1c-1.29,2.61-4.35,3.82-7.07,2.8Z"/>
  <path class="st3" d="M149.16,239.15l-85.67-32.1c-3.14-1.18-4.58-4.81-3.09-7.82L127.23,64.12c1.29-2.61,4.35-3.82,7.07-2.8l85.67,32.1c3.14,1.18,4.58,4.81,3.09,7.82l-66.83,135.1c-1.29,2.61-4.35,3.82-7.07,2.8Z"/>
  <path class="st3" d="M149.16,236.31l-85.67-32.1c-3.14-1.18-4.58-4.81-3.09-7.82L127.23,61.29c1.29-2.61,4.35-3.82,7.07-2.8l85.67,32.1c3.14,1.18,4.58,4.81,3.09,7.82l-66.83,135.1c-1.29,2.61-4.35,3.82-7.07,2.8Z"/>
  <path class="st3" d="M149.16,236.31l-85.67-32.1c-3.14-1.18-4.58-4.81-3.09-7.82L127.23,61.29c1.29-2.61,4.35-3.82,7.07-2.8l85.67,32.1c3.14,1.18,4.58,4.81,3.09,7.82l-66.83,135.1c-1.29,2.61-4.35,3.82-7.07,2.8Z"/>
  <path class="st3" d="M149.16,233.48l-85.67-32.1c-3.14-1.18-4.58-4.81-3.09-7.82L127.23,58.45c1.29-2.61,4.35-3.82,7.07-2.8l85.67,32.1c3.14,1.18,4.58,4.81,3.09,7.82l-66.83,135.1c-1.29,2.61-4.35,3.82-7.07,2.8Z"/>
  <path class="st3" d="M149.16,236.31l-85.67-32.1c-3.14-1.18-4.58-4.81-3.09-7.82L127.23,61.29c1.29-2.61,4.35-3.82,7.07-2.8l85.67,32.1c3.14,1.18,4.58,4.81,3.09,7.82l-66.83,135.1c-1.29,2.61-4.35,3.82-7.07,2.8Z"/>
  <path class="st3" d="M149.16,233.48l-85.67-32.1c-3.14-1.18-4.58-4.81-3.09-7.82L127.23,58.45c1.29-2.61,4.35-3.82,7.07-2.8l85.67,32.1c3.14,1.18,4.58,4.81,3.09,7.82l-66.83,135.1c-1.29,2.61-4.35,3.82-7.07,2.8Z"/>
  <path class="st3" d="M149.16,233.48l-85.67-32.1c-3.14-1.18-4.58-4.81-3.09-7.82L127.23,58.45c1.29-2.61,4.35-3.82,7.07-2.8l85.67,32.1c3.14,1.18,4.58,4.81,3.09,7.82l-66.83,135.1c-1.29,2.61-4.35,3.82-7.07,2.8Z"/>
  <path class="st3" d="M149.16,230.64l-85.67-32.1c-3.14-1.18-4.58-4.81-3.09-7.82L127.23,55.62c1.29-2.61,4.35-3.82,7.07-2.8l85.67,32.1c3.14,1.18,4.58,4.81,3.09,7.82l-66.83,135.1c-1.29,2.61-4.35,3.82-7.07,2.8Z"/>
  <path class="st3" d="M149.16,230.64l-85.67-32.1c-3.14-1.18-4.58-4.81-3.09-7.82L127.23,55.62c1.29-2.61,4.35-3.82,7.07-2.8l85.67,32.1c3.14,1.18,4.58,4.81,3.09,7.82l-66.83,135.1c-1.29,2.61-4.35,3.82-7.07,2.8Z"/>
  <path class="st3" d="M149.16,227.81l-85.67-32.1c-3.14-1.18-4.58-4.81-3.09-7.82L127.23,52.78c1.29-2.61,4.35-3.82,7.07-2.8l85.67,32.1c3.14,1.18,4.58,4.81,3.09,7.82l-66.83,135.1c-1.29,2.61-4.35,3.82-7.07,2.8Z"/>
  <path class="st3" d="M149.16,227.81l-85.67-32.1c-3.14-1.18-4.58-4.81-3.09-7.82L127.23,52.78c1.29-2.61,4.35-3.82,7.07-2.8l85.67,32.1c3.14,1.18,4.58,4.81,3.09,7.82l-66.83,135.1c-1.29,2.61-4.35,3.82-7.07,2.8Z"/>
  <path class="st3" d="M149.16,224.97l-85.67-32.1c-3.14-1.18-4.58-4.81-3.09-7.82L127.23,49.95c1.29-2.61,4.35-3.82,7.07-2.8l85.67,32.1c3.14,1.18,4.58,4.81,3.09,7.82l-66.83,135.1c-1.29,2.61-4.35,3.82-7.07,2.8Z"/>
  <path class="st3" d="M149.16,222.14l-85.67-32.1c-3.14-1.18-4.58-4.81-3.09-7.82L127.23,47.11c1.29-2.61,4.35-3.82,7.07-2.8l85.67,32.1c3.14,1.18,4.58,4.81,3.09,7.82l-66.83,135.1c-1.29,2.61-4.35,3.82-7.07,2.8Z"/>
  <path class="st0" d="M149.16,219.3l-85.67-32.1c-3.14-1.18-4.58-4.81-3.09-7.82L127.23,44.28c1.29-2.61,4.35-3.82,7.07-2.8l85.67,32.1c3.14,1.18,4.58,4.81,3.09,7.82l-66.83,135.1c-1.29,2.61-4.35,3.82-7.07,2.8Z"/>
  <polygon class="st2" points="196.84 70.88 212.59 86.62 157.48 141.73 212.6 196.84 196.84 212.6 141.73 157.48 86.62 212.59 70.88 196.84 125.98 141.74 70.87 86.62 86.62 70.87 141.74 125.98 196.84 70.88"/>
</svg>