<?xml version="1.0" encoding="UTF-8"?>
<svg id="_图层_1" data-name="图层_1" xmlns="http://www.w3.org/2000/svg" version="1.1" viewBox="0 0 283.46 283.46">
  <!-- Generator: Adobe Illustrator 29.0.0, SVG Export Plug-In . SVG Version: 2.1.0 Build 186)  -->
  <defs>
    <style>
      .st0 {
        fill: #acadae;
        stroke: #7b7a7b;
        stroke-miterlimit: 10;
        stroke-width: 10px;
      }
    </style>
  </defs>
  <path class="st0" d="M131.55,71.21l-54.18,36.13c-.18.12-.17.4.03.49l58.84,29.08s.09-.01.09-.06l-4.22-65.37c-.02-.27-.32-.42-.55-.27Z"/>
  <path class="st0" d="M201.78,114.54l-53.84,35.9c-.36.24-.33.79.06.98l58.42,28.88s.07,0,.07-.05l-4.23-65.47c-.02-.24-.29-.38-.49-.24Z"/>
  <path class="st0" d="M98.62,212.34l55.06-35.76s.03-.08,0-.1l-58.74-29.93c-.08-.04-.18.02-.17.11l3.43,65.46c.01.21.25.33.43.22Z"/>
</svg>