<?xml version="1.0" encoding="UTF-8"?>
<svg id="_图层_1" data-name="图层_1" xmlns="http://www.w3.org/2000/svg" version="1.1" viewBox="0 0 283.46 283.46">
  <!-- Generator: Adobe Illustrator 29.0.0, SVG Export Plug-In . SVG Version: 2.1.0 Build 186)  -->
  <defs>
    <style>
      .st0 {
        fill: none;
      }

      .st0, .st1 {
        opacity: .5;
      }

      .st0, .st1, .st2 {
        stroke: #9f4a98;
        stroke-miterlimit: 10;
        stroke-width: 5px;
      }

      .st1, .st2 {
        fill: #bb62a3;
      }

      .st2 {
        opacity: .8;
      }
    </style>
  </defs>
  <circle class="st2" cx="139.14" cy="224.19" r="15.71"/>
  <circle class="st2" cx="64.72" cy="147.71" r="22.62"/>
  <path class="st2" d="M219.54,122.34l14.08,36.64c.71,1.86-.66,3.85-2.65,3.85h-92.71c-1.95,0-3.32-1.93-2.68-3.77l13.1-37.56c.43-1.22-.02-2.58-1.11-3.29-11.99-7.8-19.59-19.31-19.59-32.15,0-23.49,25.38-42.52,56.69-42.52s56.69,19.03,56.69,42.52c0,13.23-8.06,25.05-20.7,32.85-1.15.71-1.62,2.15-1.13,3.41Z"/>
  <circle class="st1" cx="166.63" cy="85.66" r="9.54"/>
  <circle class="st1" cx="201.9" cy="85.66" r="9.54"/>
  <line class="st0" x1="163.93" y1="162.84" x2="169.32" y2="134.21"/>
  <line class="st0" x1="204.59" y1="162.84" x2="199.2" y2="134.21"/>
</svg>