<?xml version="1.0" encoding="UTF-8"?>
<svg id="_图层_1" data-name="图层_1" xmlns="http://www.w3.org/2000/svg" version="1.1" viewBox="0 0 283.46 283.46">
  <!-- Generator: Adobe Illustrator 29.0.0, SVG Export Plug-In . SVG Version: 2.1.0 Build 186)  -->
  <defs>
    <style>
      .st0 {
        fill: #aaabab;
        stroke: #898989;
        stroke-width: 15px;
      }

      .st0, .st1 {
        stroke-miterlimit: 10;
      }

      .st1 {
        fill: #fff;
        stroke: #fff;
        stroke-width: 8px;
      }
    </style>
  </defs>
  <rect class="st0" x="7.09" y="7.09" width="269.29" height="269.29" rx="22.68" ry="22.68"/>
  <path class="st1" d="M227.17,163.36v-36.94c0-1.57-1.27-2.83-2.83-2.83h-29.6l-.36-.87,20.99-21.04c1.1-1.11,1.1-2.9,0-4l-26.07-26.12c-1.11-1.11-2.91-1.11-4.01,0l-20.92,20.97c-.29-.12-.58-.24-.88-.37v-29.37c0-1.57-1.27-2.83-2.83-2.83h-36.85c-1.57,0-2.83,1.27-2.83,2.83v29.29l-.98.41-20.95-20.99c-1.11-1.11-2.91-1.11-4.01,0l-26.06,26.12c-1.1,1.11-1.1,2.9,0,4l20.96,21-.37.88h-29.64c-1.57,0-2.83,1.27-2.83,2.83v36.94c0,1.57,1.27,2.83,2.83,2.83h29.64l.37.88-20.96,21c-1.1,1.11-1.1,2.9,0,4l26.06,26.11c1.11,1.11,2.91,1.11,4.01,0l20.94-20.99.99.41v29.66c0,1.57,1.27,2.83,2.83,2.83h36.85c1.57,0,2.83-1.27,2.83-2.83v-29.73c.18-.08.35-.15.52-.22l21.02,21.07c1.11,1.11,2.91,1.11,4.01,0l26.06-26.11c1.1-1.11,1.1-2.9,0-4l-20.88-20.93.44-1.06h29.67c1.57,0,2.83-1.27,2.83-2.83ZM142.13,180.4c-19.57,0-35.43-15.9-35.43-35.51s15.86-35.5,35.43-35.5,35.44,15.89,35.44,35.5-15.87,35.51-35.44,35.51Z"/>
</svg>