<?xml version="1.0" encoding="UTF-8"?>
<svg id="_图层_1" data-name="图层_1" xmlns="http://www.w3.org/2000/svg" version="1.1" viewBox="0 0 283.46 283.46">
  <!-- Generator: Adobe Illustrator 29.0.0, SVG Export Plug-In . SVG Version: 2.1.0 Build 186)  -->
  <defs>
    <style>
      .st0 {
        fill: #fbddb2;
        stroke: #f9e39e;
        stroke-width: 15px;
      }

      .st0, .st1 {
        stroke-miterlimit: 10;
      }

      .st1 {
        fill: #fff;
        stroke: #c2a611;
        stroke-width: 8px;
      }
    </style>
  </defs>
  <polygon class="st1" points="141.83 141.61 141.83 141.73 141.73 141.73 141.83 141.61"/>
  <polygon class="st1" points="141.83 141.73 141.83 141.85 141.71 141.74 141.71 141.73 141.83 141.73"/>
  <polygon class="st1" points="141.83 141.61 141.83 141.85 141.71 141.74 141.71 141.73 141.73 141.73 141.83 141.61"/>
  <path class="st0" d="M212.7,141.73c0-10.07-5.18-18.93-13.01-24.07,1.84-9.12-.78-18.96-7.86-26.03-7.09-7.09-16.96-9.7-26.1-7.85-5.14-7.78-13.98-12.92-24.01-12.92s-18.86,5.14-24.01,12.92c-9.14-1.87-19,.76-26.09,7.85-7.1,7.1-9.72,17.01-7.83,26.16-7.72,5.15-12.81,13.95-12.81,23.94s5.09,18.78,12.81,23.94c-1.89,9.16.72,19.06,7.83,26.17s16.96,9.71,26.1,7.85c5.14,7.78,13.98,12.9,24,12.9s18.85-5.13,24-12.9c9.14,1.87,19.01-.76,26.11-7.85,7.08-7.08,9.7-16.92,7.86-26.04,7.83-5.13,13.01-14,13.01-24.07ZM141.83,141.61,141.71,141.73"/>
</svg>