<?xml version="1.0" encoding="UTF-8"?>
<svg id="_图层_1" data-name="图层_1" xmlns="http://www.w3.org/2000/svg" version="1.1" viewBox="0 0 283.46 283.46">
  <!-- Generator: Adobe Illustrator 29.0.0, SVG Export Plug-In . SVG Version: 2.1.0 Build 186)  -->
  <defs>
    <style>
      .st0 {
        fill: #a1519b;
        opacity: .75;
        stroke: #81328e;
        stroke-miterlimit: 10;
        stroke-width: 10px;
      }
    </style>
  </defs>
  <path class="st0" d="M127.83,111.44c12.37-3.9,14-71.58,13.69-71.58-.31,0-4.56,59.7,8.71,63.49,12.77,3.64,37.54-45.73,40.66-43.98,3.02,1.69-23.34,46.09-14.94,53.11,8.39,7.02,48.05-26.12,48.96-24.9.92,1.23-42.65,29.57-38.17,40.66,4.55,11.27,57.16.82,57.26,1.66.11.86-56.59,5.8-56.85,13.28-.27,7.87,61.67,16.84,61.83,18.26.86,7.86-58.46-.2-65.56-.83-12.76-1.13,46.75,45.8,45.64,47.3-1,1.35-37.88-32.49-53.53-23.24-14.85,8.78-4.69,52.89-6.64,53.11-2.08.24-6.41-51.25-15.35-51.87-9.67-.66-20.71,58.4-24.48,57.68-3.76-.72,8.22-59.05-1.24-62.24-9.33-3.15-35.91,48.49-36.51,48.13-.62-.36,34.01-51.17,24.9-60.17-9.3-9.17-61.82,27.4-61.83,27.39,0,0,56.96-27.14,53.53-41.08-3.62-14.71-73.44-10.63-73.44-12.86,0-2.11,73.12,3.29,78.63-13.49,5.93-18.06-54.33-54.87-52.28-56.02,2.11-1.18,53.13,42.55,67.01,38.17Z"/>
  <circle class="st0" cx="179.38" cy="85.57" r="14.32"/>
  <circle class="st0" cx="165.07" cy="141.73" r="14.32"/>
  <circle class="st0" cx="86.64" cy="158.39" r="14.32"/>
  <circle class="st0" cx="117.76" cy="99.88" r="14.32"/>
  <circle class="st0" cx="138.1" cy="198.43" r="14.32"/>
  <circle class="st0" cx="204.07" cy="178.93" r="14.32"/>
</svg>