<?xml version="1.0" encoding="UTF-8"?>
<svg id="_图层_1" data-name="图层_1" xmlns="http://www.w3.org/2000/svg" version="1.1" viewBox="0 0 283.46 283.46">
  <!-- Generator: Adobe Illustrator 29.0.0, SVG Export Plug-In . SVG Version: 2.1.0 Build 186)  -->
  <defs>
    <style>
      .st0 {
        fill: #d3d3d4;
      }

      .st0, .st1 {
        stroke: #d3d3d4;
        stroke-miterlimit: 10;
        stroke-width: 10px;
      }

      .st1 {
        fill: none;
      }
    </style>
  </defs>
  <line class="st1" x1="62.62" y1="62.62" x2="113.02" y2="113.02"/>
  <path class="st1" d="M79.64,160.84"/>
  <polyline class="st1" points="61.56 83.33 61.56 61.56 83.33 61.56"/>
  <line class="st1" x1="220.84" y1="62.62" x2="170.45" y2="113.02"/>
  <polyline class="st1" points="200.13 61.56 221.91 61.56 221.91 83.33"/>
  <line class="st1" x1="220.84" y1="220.84" x2="170.45" y2="170.45"/>
  <polyline class="st1" points="221.91 200.13 221.91 221.91 200.13 221.91"/>
  <line class="st1" x1="62.62" y1="220.84" x2="113.02" y2="170.45"/>
  <polyline class="st1" points="61.56 200.13 61.56 221.91 83.33 221.91"/>
  <circle class="st0" cx="141.73" cy="141.73" r="10.89"/>
  <line class="st1" x1="29.86" y1="141.73" x2="101.12" y2="141.73"/>
  <path class="st1" d="M111.34,199.15"/>
  <polyline class="st1" points="43.75 157.13 28.35 141.73 43.75 126.33"/>
  <line class="st1" x1="141.73" y1="29.86" x2="141.73" y2="101.12"/>
  <polyline class="st1" points="126.33 43.75 141.73 28.35 157.13 43.75"/>
  <line class="st1" x1="253.61" y1="141.73" x2="182.34" y2="141.73"/>
  <polyline class="st1" points="239.72 126.33 255.12 141.73 239.72 157.13"/>
  <line class="st1" x1="141.73" y1="253.61" x2="141.73" y2="182.34"/>
  <polyline class="st1" points="126.33 239.72 141.73 255.12 157.13 239.72"/>
</svg>