<?xml version="1.0" encoding="UTF-8"?>
<svg id="_图层_1" data-name="图层_1" xmlns="http://www.w3.org/2000/svg" version="1.1" viewBox="0 0 283.46 283.46">
  <!-- Generator: Adobe Illustrator 29.0.0, SVG Export Plug-In . SVG Version: 2.1.0 Build 186)  -->
  <defs>
    <style>
      .st0 {
        fill: #e83531;
        stroke: #c6171e;
      }

      .st0, .st1, .st2 {
        stroke-miterlimit: 10;
        stroke-width: 15px;
      }

      .st1 {
        fill: none;
      }

      .st1, .st2 {
        stroke: #f7f8f8;
      }

      .st2 {
        fill: #fff;
      }
    </style>
  </defs>
  <rect class="st0" x="7.18" y="7.35" width="269.29" height="269.29" rx="22.68" ry="22.68"/>
  <g>
    <path class="st2" d="M76.43,137.03l20.7-4.6c11.21-2.49,22.92-1.52,33.57,2.79l19.18,7.76c10.9,4.41,22.9,5.32,34.34,2.62l25.36-6.01c2.56-.61,4.36-2.89,4.36-5.52V58.03c0-3.61-3.34-6.3-6.87-5.54l-23.04,4.98c-10.55,2.28-21.52,1.5-31.64-2.24l-19.68-7.28c-9.31-3.44-19.35-4.38-29.14-2.72l-29.31,4.97c-2.73.46-4.72,2.82-4.72,5.59v75.7c0,3.63,3.36,6.32,6.9,5.53Z"/>
    <line class="st1" x1="69.53" y1="125.64" x2="69.53" y2="239.02"/>
  </g>
</svg>