<?xml version="1.0" encoding="UTF-8"?>
<svg id="_图层_1" data-name="图层_1" xmlns="http://www.w3.org/2000/svg" version="1.1" viewBox="0 0 283.46 283.46">
  <!-- Generator: Adobe Illustrator 29.0.0, SVG Export Plug-In . SVG Version: 2.1.0 Build 186)  -->
  <defs>
    <style>
      .st0 {
        fill: #fff;
        stroke: #0e80a1;
      }

      .st0, .st1, .st2 {
        stroke-miterlimit: 10;
      }

      .st0, .st2 {
        stroke-width: 5px;
      }

      .st1 {
        fill: #aad9cc;
        stroke: #94d1c8;
        stroke-width: 10px;
      }

      .st2 {
        fill: #52c1e8;
        stroke: #18adc7;
      }
    </style>
  </defs>
  <circle class="st1" cx="141.73" cy="144.57" r="113.39"/>
  <g>
    <path class="st0" d="M176.33,242.12l-91.41-10.13c-3.35-.37-5.72-3.66-5.1-7.07l28.12-153.26c.54-2.96,3.17-4.97,6.08-4.64l91.41,10.13c3.35.37,5.72,3.66,5.1,7.07l-28.12,153.26c-.54,2.96-3.17,4.97-6.08,4.64Z"/>
    <path class="st0" d="M175.56,239.27l-91.41-10.13c-3.35-.37-5.72-3.66-5.1-7.07l28.12-153.26c.54-2.96,3.17-4.97,6.08-4.64l91.41,10.13c3.35.37,5.72,3.66,5.1,7.07l-28.12,153.26c-.54,2.96-3.17,4.97-6.08,4.64Z"/>
    <path class="st0" d="M175.56,239.27l-91.41-10.13c-3.35-.37-5.72-3.66-5.1-7.07l28.12-153.26c.54-2.96,3.17-4.97,6.08-4.64l91.41,10.13c3.35.37,5.72,3.66,5.1,7.07l-28.12,153.26c-.54,2.96-3.17,4.97-6.08,4.64Z"/>
    <path class="st0" d="M174.8,236.42l-91.41-10.13c-3.35-.37-5.72-3.66-5.1-7.07l28.12-153.26c.54-2.96,3.17-4.97,6.08-4.64l91.41,10.13c3.35.37,5.72,3.66,5.1,7.07l-28.12,153.26c-.54,2.96-3.17,4.97-6.08,4.64Z"/>
    <path class="st0" d="M174.8,236.42l-91.41-10.13c-3.35-.37-5.72-3.66-5.1-7.07l28.12-153.26c.54-2.96,3.17-4.97,6.08-4.64l91.41,10.13c3.35.37,5.72,3.66,5.1,7.07l-28.12,153.26c-.54,2.96-3.17,4.97-6.08,4.64Z"/>
    <path class="st0" d="M174.03,233.56l-91.41-10.13c-3.35-.37-5.72-3.66-5.1-7.07l28.12-153.26c.54-2.96,3.17-4.97,6.08-4.64l91.41,10.13c3.35.37,5.72,3.66,5.1,7.07l-28.12,153.26c-.54,2.96-3.17,4.97-6.08,4.64Z"/>
    <path class="st0" d="M174.03,233.56l-91.41-10.13c-3.35-.37-5.72-3.66-5.1-7.07l28.12-153.26c.54-2.96,3.17-4.97,6.08-4.64l91.41,10.13c3.35.37,5.72,3.66,5.1,7.07l-28.12,153.26c-.54,2.96-3.17,4.97-6.08,4.64Z"/>
    <path class="st0" d="M173.27,230.71l-91.41-10.13c-3.35-.37-5.72-3.66-5.1-7.07l28.12-153.26c.54-2.96,3.17-4.97,6.08-4.64l91.41,10.13c3.35.37,5.72,3.66,5.1,7.07l-28.12,153.26c-.54,2.96-3.17,4.97-6.08,4.64Z"/>
    <path class="st0" d="M174.03,233.56l-91.41-10.13c-3.35-.37-5.72-3.66-5.1-7.07l28.12-153.26c.54-2.96,3.17-4.97,6.08-4.64l91.41,10.13c3.35.37,5.72,3.66,5.1,7.07l-28.12,153.26c-.54,2.96-3.17,4.97-6.08,4.64Z"/>
    <path class="st0" d="M173.27,230.71l-91.41-10.13c-3.35-.37-5.72-3.66-5.1-7.07l28.12-153.26c.54-2.96,3.17-4.97,6.08-4.64l91.41,10.13c3.35.37,5.72,3.66,5.1,7.07l-28.12,153.26c-.54,2.96-3.17,4.97-6.08,4.64Z"/>
    <path class="st0" d="M173.27,230.71l-91.41-10.13c-3.35-.37-5.72-3.66-5.1-7.07l28.12-153.26c.54-2.96,3.17-4.97,6.08-4.64l91.41,10.13c3.35.37,5.72,3.66,5.1,7.07l-28.12,153.26c-.54,2.96-3.17,4.97-6.08,4.64Z"/>
    <path class="st0" d="M172.5,227.86l-91.41-10.13c-3.35-.37-5.72-3.66-5.1-7.07l28.12-153.26c.54-2.96,3.17-4.97,6.08-4.64l91.41,10.13c3.35.37,5.72,3.66,5.1,7.07l-28.12,153.26c-.54,2.96-3.17,4.97-6.08,4.64Z"/>
    <path class="st0" d="M172.5,227.86l-91.41-10.13c-3.35-.37-5.72-3.66-5.1-7.07l28.12-153.26c.54-2.96,3.17-4.97,6.08-4.64l91.41,10.13c3.35.37,5.72,3.66,5.1,7.07l-28.12,153.26c-.54,2.96-3.17,4.97-6.08,4.64Z"/>
    <path class="st0" d="M171.74,225.01l-91.41-10.13c-3.35-.37-5.72-3.66-5.1-7.07l28.12-153.26c.54-2.96,3.17-4.97,6.08-4.64l91.41,10.13c3.35.37,5.72,3.66,5.1,7.07l-28.12,153.26c-.54,2.96-3.17,4.97-6.08,4.64Z"/>
    <path class="st0" d="M171.74,225.01l-91.41-10.13c-3.35-.37-5.72-3.66-5.1-7.07l28.12-153.26c.54-2.96,3.17-4.97,6.08-4.64l91.41,10.13c3.35.37,5.72,3.66,5.1,7.07l-28.12,153.26c-.54,2.96-3.17,4.97-6.08,4.64Z"/>
    <path class="st0" d="M170.98,222.15l-91.41-10.13c-3.35-.37-5.72-3.66-5.1-7.07l28.12-153.26c.54-2.96,3.17-4.97,6.08-4.64l91.41,10.13c3.35.37,5.72,3.66,5.1,7.07l-28.12,153.26c-.54,2.96-3.17,4.97-6.08,4.64Z"/>
    <path class="st0" d="M170.21,219.3l-91.41-10.13c-3.35-.37-5.72-3.66-5.1-7.07l28.12-153.26c.54-2.96,3.17-4.97,6.08-4.64l91.41,10.13c3.35.37,5.72,3.66,5.1,7.07l-28.12,153.26c-.54,2.96-3.17,4.97-6.08,4.64Z"/>
    <path class="st2" d="M169.45,216.45l-91.41-10.13c-3.35-.37-5.72-3.66-5.1-7.07l28.12-153.26c.54-2.96,3.17-4.97,6.08-4.64l91.41,10.13c3.35.37,5.72,3.66,5.1,7.07l-28.12,153.26c-.54,2.96-3.17,4.97-6.08,4.64Z"/>
  </g>
</svg>