<?xml version="1.0" encoding="UTF-8"?>
<svg id="_图层_1" data-name="图层_1" xmlns="http://www.w3.org/2000/svg" version="1.1" viewBox="0 0 283.46 283.46">
  <!-- Generator: Adobe Illustrator 29.0.0, SVG Export Plug-In . SVG Version: 2.1.0 Build 186)  -->
  <defs>
    <style>
      .st0 {
        fill: #ac3c23;
        stroke: #8e3b22;
      }

      .st0, .st1, .st2 {
        stroke-miterlimit: 10;
        stroke-width: 5px;
      }

      .st1 {
        fill: #e4e4e5;
        stroke: #cdcece;
      }

      .st2 {
        fill: #aaabab;
        stroke: #929292;
      }
    </style>
  </defs>
  <path class="st0" d="M86.58,161.69h13.69v42.11c0,.16-.13.28-.28.28h-13.13c-.16,0-.28-.13-.28-.28v-42.11h0Z" transform="translate(173.48 -6.24) rotate(50)"/>
  <path class="st2" d="M145.92,201.41c-5.24,4.39-23.2-8.39-40.12-28.55-16.92-20.16-26.39-40.07-21.15-44.46,5.24-4.39,66.51,68.63,61.27,73.02Z"/>
  <path class="st1" d="M146.23,136.83l-4.5-7-37.32,24.69c-.14.09-.17.29-.06.42l18.5,22.05c.11.13.31.14.42.01l25.74-26.04-8.84-4.6,6.06-9.53Z"/>
  <path class="st1" d="M166.16,114.02v.14c-7.79,0-14.1,6.27-14.17,14.04h-.01c-.07-7.77-6.39-14.04-14.17-14.04v-.14c7.83,0,14.17-6.35,14.17-14.17h.05c0,7.81,6.32,14.15,14.13,14.17Z"/>
  <path class="st1" d="M203.14,135.61v.14c-7.79,0-14.1,6.27-14.17,14.04h-.01c-.07-7.77-6.39-14.04-14.17-14.04v-.14c7.83,0,14.17-6.35,14.17-14.17h.05c0,7.81,6.32,14.15,14.13,14.17Z"/>
  <path class="st1" d="M200.66,99.85v.14c-7.79,0-14.1,6.27-14.17,14.04h-.01c-.07-7.77-6.39-14.04-14.17-14.04v-.14c7.83,0,14.17-6.35,14.17-14.17h.05c0,7.81,6.32,14.15,14.13,14.17Z"/>
</svg>