<?xml version="1.0" encoding="UTF-8"?>
<svg id="_图层_1" data-name="图层_1" xmlns="http://www.w3.org/2000/svg" version="1.1" viewBox="0 0 283.46 283.46">
  <!-- Generator: Adobe Illustrator 29.0.0, SVG Export Plug-In . SVG Version: 2.1.0 Build 186)  -->
  <defs>
    <style>
      .st0 {
        fill: #ededed;
        stroke: #cbcccc;
        stroke-miterlimit: 10;
        stroke-width: 10px;
      }
    </style>
  </defs>
  <path class="st0" d="M98.86,186.22s19.19,21.26,42.87,21.26,42.87-21.26,42.87-21.26c0,23.48-19.19,42.52-42.87,42.52-23.68,0-42.87-19.04-42.87-42.52Z"/>
  <path class="st0" d="M213.94,137.92s8.82-27.25-3.02-47.76c-11.84-20.5-39.85-26.5-39.85-26.5,20.34-11.74,46.42-4.64,58.26,15.87,11.84,20.5,4.95,46.64-15.39,58.39Z"/>
  <path class="st0" d="M69.62,137.92s-8.82-27.25,3.02-47.76,39.85-26.5,39.85-26.5c-20.34-11.74-46.42-4.64-58.26,15.87-11.84,20.5-4.95,46.64,15.39,58.39Z"/>
</svg>